<?xml version="1.0" encoding="UTF-8"?>
<!DOCTYPE svg PUBLIC "-//W3C//DTD SVG 1.1//EN" "http://www.w3.org/Graphics/SVG/1.1/DTD/svg11.dtd">
<svg xmlns="http://www.w3.org/2000/svg" version="1.1" width="548px" height="296px" style="shape-rendering:geometricPrecision; text-rendering:geometricPrecision; image-rendering:optimizeQuality; fill-rule:evenodd; clip-rule:evenodd" xmlns:xlink="http://www.w3.org/1999/xlink">
<g><path style="opacity:0.882" fill="#6a915a" d="M 282.5,1.5 C 282.5,1.83333 282.5,2.16667 282.5,2.5C 273.812,2.41346 265.146,2.74679 256.5,3.5C 257.635,1.91217 258.969,1.57883 260.5,2.5C 262.573,1.5313 264.739,0.864633 267,0.5C 272.593,1.15458 277.76,1.48791 282.5,1.5 Z"/></g>
<g><path style="opacity:0.298" fill="#356424" d="M 282.5,2.5 C 282.5,2.16667 282.5,1.83333 282.5,1.5C 291.097,2.36096 298.763,5.36096 305.5,10.5C 298.107,7.03569 290.44,4.36903 282.5,2.5 Z"/></g>
<g><path style="opacity:0.565" fill="#497a32" d="M 256.5,3.5 C 253.322,5.00862 249.989,6.34196 246.5,7.5C 249.113,4.84039 252.446,3.50705 256.5,3.5 Z"/></g>
<g><path style="opacity:0.784" fill="#568542" d="M 245.5,7.5 C 243.388,9.77054 240.721,11.1039 237.5,11.5C 239.676,9.48477 242.176,7.8181 245,6.5C 245.399,6.72845 245.565,7.06178 245.5,7.5 Z"/></g>
<g><path style="opacity:0.999" fill="#cae6bd" d="M 282.5,2.5 C 290.44,4.36903 298.107,7.03569 305.5,10.5C 306.904,13.3769 309.237,15.0435 312.5,15.5C 313.757,18.4274 315.757,20.7607 318.5,22.5C 318.557,23.609 318.89,24.609 319.5,25.5C 318.469,26.2485 317.302,26.9152 316,27.5C 305.076,26.5431 294.243,25.8764 283.5,25.5C 281.746,21.4118 278.746,18.7451 274.5,17.5C 274.167,17.5 273.833,17.5 273.5,17.5C 272.791,16.596 271.791,16.2627 270.5,16.5C 270.167,16.5 269.833,16.5 269.5,16.5C 267.165,13.8352 264.165,12.5018 260.5,12.5C 254.431,10.808 248.764,11.808 243.5,15.5C 243.167,15.5 242.833,15.5 242.5,15.5C 240.167,15.5 237.833,15.5 235.5,15.5C 235.433,14.0413 235.766,12.7079 236.5,11.5C 236.833,11.5 237.167,11.5 237.5,11.5C 240.721,11.1039 243.388,9.77054 245.5,7.5C 245.833,7.5 246.167,7.5 246.5,7.5C 249.989,6.34196 253.322,5.00862 256.5,3.5C 265.146,2.74679 273.812,2.41346 282.5,2.5 Z"/></g>
<g><path style="opacity:0.035" fill="#305a1d" d="M 260.5,12.5 C 255.149,12.7074 249.815,14.0407 244.5,16.5C 243.893,16.3764 243.56,16.0431 243.5,15.5C 248.764,11.808 254.431,10.808 260.5,12.5 Z"/></g>
<g><path style="opacity:0.722" fill="#61924c" d="M 305.5,10.5 C 308.117,11.7859 310.45,13.4525 312.5,15.5C 309.237,15.0435 306.904,13.3769 305.5,10.5 Z"/></g>
<g><path style="opacity:0.043" fill="#1a440c" d="M 236.5,11.5 C 235.766,12.7079 235.433,14.0413 235.5,15.5C 237.833,15.5 240.167,15.5 242.5,15.5C 241.391,16.29 240.058,16.79 238.5,17C 241.069,17.8984 243.402,19.065 245.5,20.5C 241.277,19.7159 237.277,18.3826 233.5,16.5C 231.052,15.5269 228.385,15.1936 225.5,15.5C 229.449,14.9299 233.116,13.5966 236.5,11.5 Z"/></g>
<g><path style="opacity:0.647" fill="#42742e" d="M 312.5,15.5 C 315.243,17.2393 317.243,19.5726 318.5,22.5C 315.757,20.7607 313.757,18.4274 312.5,15.5 Z"/></g>
<g><path style="opacity:0.243" fill="#3b7025" d="M 225.5,15.5 C 228.385,15.1936 231.052,15.5269 233.5,16.5C 226.42,15.9383 219.753,17.2716 213.5,20.5C 216.768,17.2935 220.768,15.6268 225.5,15.5 Z"/></g>
<g><path style="opacity:0.447" fill="#3c6f28" d="M 260.5,12.5 C 264.165,12.5018 267.165,13.8352 269.5,16.5C 268.817,17.6441 269.151,17.6441 270.5,16.5C 271.791,16.2627 272.791,16.596 273.5,17.5C 273.5,17.8333 273.5,18.1667 273.5,18.5C 268.047,18.3649 262.714,19.0315 257.5,20.5C 260.297,18.9395 263.297,17.6061 266.5,16.5C 264.435,15.1433 262.435,13.81 260.5,12.5 Z"/></g>
<g><path style="opacity:1" fill="#c5e3b7" d="M 233.5,16.5 C 237.277,18.3826 241.277,19.7159 245.5,20.5C 249.53,23.0794 253.53,23.0794 257.5,20.5C 262.714,19.0315 268.047,18.3649 273.5,18.5C 284.281,24.0872 284.948,30.7539 275.5,38.5C 274.178,38.33 273.011,38.6634 272,39.5C 249.431,38.147 226.931,37.4803 204.5,37.5C 204.704,34.4824 205.037,31.4824 205.5,28.5C 208.5,26.1667 211.167,23.5 213.5,20.5C 219.753,17.2716 226.42,15.9383 233.5,16.5 Z"/></g>
<g><path style="opacity:0.612" fill="#4d7d39" d="M 245.5,20.5 C 249.5,20.5 253.5,20.5 257.5,20.5C 253.53,23.0794 249.53,23.0794 245.5,20.5 Z"/></g>
<g><path style="opacity:0.663" fill="#41752c" d="M 318.5,22.5 C 320.587,23.5846 321.92,25.2512 322.5,27.5C 321.5,26.8333 320.5,26.1667 319.5,25.5C 318.89,24.609 318.557,23.609 318.5,22.5 Z"/></g>
<g><path style="opacity:0.702" fill="#518339" d="M 213.5,20.5 C 211.167,23.5 208.5,26.1667 205.5,28.5C 207.167,24.8333 209.833,22.1667 213.5,20.5 Z"/></g>
<g><path style="opacity:0.788" fill="#43702f" d="M 322.5,27.5 C 325.509,31.2058 327.176,35.5392 327.5,40.5C 325.248,36.4144 323.582,32.081 322.5,27.5 Z"/></g>
<g><path style="opacity:1" fill="#bcdead" d="M 204.5,37.5 C 226.931,37.4803 249.431,38.147 272,39.5C 273.011,38.6634 274.178,38.33 275.5,38.5C 273.156,40.9974 270.489,42.9974 267.5,44.5C 265.205,45.4746 263.205,46.8079 261.5,48.5C 259.251,49.0798 257.585,50.4131 256.5,52.5C 255.339,55.1022 254.172,57.7689 253,60.5C 252.051,58.9069 250.885,57.5736 249.5,56.5C 249.5,55.8333 249.167,55.5 248.5,55.5C 248.5,55.1667 248.5,54.8333 248.5,54.5C 248.5,53.8333 248.167,53.5 247.5,53.5C 247.5,52.8333 247.167,52.5 246.5,52.5C 246.5,52.1667 246.5,51.8333 246.5,51.5C 238.112,42.7586 227.779,39.2586 215.5,41C 214.058,41.3768 213.058,42.2101 212.5,43.5C 212.5,44.1667 212.167,44.5 211.5,44.5C 210.178,44.67 209.011,44.3366 208,43.5C 206.796,44.4706 206.296,45.4706 206.5,46.5C 205.818,45.7573 205.151,45.0906 204.5,44.5C 204.5,42.1667 204.5,39.8333 204.5,37.5 Z"/></g>
<g><path style="opacity:0.999" fill="#bfe0b0" d="M 283.5,25.5 C 294.243,25.8764 305.076,26.5431 316,27.5C 317.302,26.9152 318.469,26.2485 319.5,25.5C 320.5,26.1667 321.5,26.8333 322.5,27.5C 323.582,32.081 325.248,36.4144 327.5,40.5C 327.672,41.4916 327.338,42.1583 326.5,42.5C 325.415,40.4131 323.749,39.0798 321.5,38.5C 318.519,34.3324 314.519,32.1657 309.5,32C 310.693,33.0946 312.027,33.928 313.5,34.5C 314.833,37.8333 317.167,40.1667 320.5,41.5C 320.241,43.9893 321.241,45.656 323.5,46.5C 323.719,47.675 323.386,48.675 322.5,49.5C 320.142,50.5383 317.476,50.5383 314.5,49.5C 313.391,49.4431 312.391,49.1098 311.5,48.5C 309.719,45.9538 307.386,44.4538 304.5,44C 306.114,46.1267 308.114,47.6267 310.5,48.5C 310.5,49.1667 310.833,49.5 311.5,49.5C 311.5,49.8333 311.5,50.1667 311.5,50.5C 307.049,51.8271 302.216,52.4937 297,52.5C 288.954,51.9451 280.954,51.9451 273,52.5C 271,51.8333 269,51.1667 267,50.5C 265.739,50.7591 264.739,51.4258 264,52.5C 262.272,51.6477 262.105,50.6477 263.5,49.5C 264.833,48.1667 266.167,46.8333 267.5,45.5C 267.833,45.5 268.167,45.5 268.5,45.5C 278.128,42.217 283.128,35.5503 283.5,25.5 Z"/></g>
<g><path style="opacity:0.671" fill="#4a7d33" d="M 321.5,38.5 C 323.749,39.0798 325.415,40.4131 326.5,42.5C 326.167,42.5 325.833,42.5 325.5,42.5C 323.833,41.5 322.5,40.1667 321.5,38.5 Z"/></g>
<g><path style="opacity:0.267" fill="#305d1c" d="M 321.5,38.5 C 319.537,37.3159 317.537,36.4826 315.5,36C 317.373,37.7038 319.04,39.5372 320.5,41.5C 317.167,40.1667 314.833,37.8333 313.5,34.5C 312.027,33.928 310.693,33.0946 309.5,32C 314.519,32.1657 318.519,34.3324 321.5,38.5 Z"/></g>
<g><path style="opacity:0.427" fill="#355925" d="M 205.5,28.5 C 205.037,31.4824 204.704,34.4824 204.5,37.5C 204.5,39.8333 204.5,42.1667 204.5,44.5C 204.5,45.5 204.5,46.5 204.5,47.5C 202.846,43.2493 202.18,38.916 202.5,34.5C 203.136,32.22 204.136,30.22 205.5,28.5 Z"/></g>
<g><path style="opacity:0.114" fill="#407828" d="M 274.5,17.5 C 278.746,18.7451 281.746,21.4118 283.5,25.5C 283.128,35.5503 278.128,42.217 268.5,45.5C 268.5,44.8333 268.167,44.5 267.5,44.5C 270.489,42.9974 273.156,40.9974 275.5,38.5C 284.948,30.7539 284.281,24.0872 273.5,18.5C 274.167,18.5 274.5,18.1667 274.5,17.5 Z"/></g>
<g><path style="opacity:0.212" fill="#143909" d="M 327.5,40.5 C 330.14,41.7936 330.14,43.127 327.5,44.5C 326.478,44.1445 325.811,43.4778 325.5,42.5C 325.833,42.5 326.167,42.5 326.5,42.5C 327.338,42.1583 327.672,41.4916 327.5,40.5 Z"/></g>
<g><path style="opacity:0.989" fill="#8db67a" d="M 211.5,44.5 C 211.267,46.0618 210.6,47.3951 209.5,48.5C 208.849,49.0906 208.182,49.7573 207.5,50.5C 206.818,49.7573 206.151,49.0906 205.5,48.5C 204.833,48.5 204.5,48.1667 204.5,47.5C 204.5,46.5 204.5,45.5 204.5,44.5C 205.151,45.0906 205.818,45.7573 206.5,46.5C 206.296,45.4706 206.796,44.4706 208,43.5C 209.011,44.3366 210.178,44.67 211.5,44.5 Z"/></g>
<g><path style="opacity:0.2" fill="#3f692b" d="M 320.5,41.5 C 321.89,42.8993 322.89,44.5659 323.5,46.5C 321.241,45.656 320.241,43.9893 320.5,41.5 Z"/></g>
<g><path style="opacity:0.296" fill="#3b7224" d="M 246.5,51.5 C 245.833,51.5 245.5,51.8333 245.5,52.5C 241.79,49.467 237.79,46.8003 233.5,44.5C 233.167,44.6667 232.833,44.8333 232.5,45C 234.141,46.129 235.141,47.629 235.5,49.5C 232.636,47.9767 230.969,45.6433 230.5,42.5C 227.468,42.495 224.468,42.1616 221.5,41.5C 218.448,42.0135 215.448,42.6802 212.5,43.5C 213.058,42.2101 214.058,41.3768 215.5,41C 227.779,39.2586 238.112,42.7586 246.5,51.5 Z"/></g>
<g><path style="opacity:0.204" fill="#386823" d="M 311.5,48.5 C 311.167,48.5 310.833,48.5 310.5,48.5C 308.114,47.6267 306.114,46.1267 304.5,44C 307.386,44.4538 309.719,45.9538 311.5,48.5 Z"/></g>
<g><path style="opacity:0.227" fill="#396f1f" d="M 267.5,44.5 C 267.5,44.8333 267.5,45.1667 267.5,45.5C 266.167,46.8333 264.833,48.1667 263.5,49.5C 263.167,49.5 262.833,49.5 262.5,49.5C 262.5,48.8333 262.167,48.5 261.5,48.5C 263.205,46.8079 265.205,45.4746 267.5,44.5 Z"/></g>
<g><path style="opacity:0.998" fill="#a1c88f" d="M 323.5,46.5 C 325.599,49.8559 327.599,53.3559 329.5,57C 328.944,57.3826 328.611,57.8826 328.5,58.5C 328.179,60.0481 327.179,60.7148 325.5,60.5C 325.5,60.1667 325.5,59.8333 325.5,59.5C 323.1,56.0969 320.1,53.4302 316.5,51.5C 315.5,51.1667 314.833,50.5 314.5,49.5C 317.476,50.5383 320.142,50.5383 322.5,49.5C 323.386,48.675 323.719,47.675 323.5,46.5 Z"/></g>
<g><path style="opacity:0.729" fill="#487733" d="M 205.5,48.5 C 206.151,49.0906 206.818,49.7573 207.5,50.5C 208.182,49.7573 208.849,49.0906 209.5,48.5C 210.296,54.4203 208.63,54.9203 204.5,50C 205.056,49.6174 205.389,49.1174 205.5,48.5 Z"/></g>
<g><path style="opacity:0.035" fill="#163b06" d="M 311.5,48.5 C 312.391,49.1098 313.391,49.4431 314.5,49.5C 314.833,50.5 315.5,51.1667 316.5,51.5C 316.833,52.1667 317.167,52.8333 317.5,53.5C 316.833,53.5 316.5,53.8333 316.5,54.5C 314.833,53.1667 313.167,51.8333 311.5,50.5C 311.5,50.1667 311.5,49.8333 311.5,49.5C 311.5,49.1667 311.5,48.8333 311.5,48.5 Z"/></g>
<g><path style="opacity:0.055" fill="#36641e" d="M 261.5,48.5 C 261.5,48.8333 261.5,49.1667 261.5,49.5C 260.564,50.9744 259.23,51.9744 257.5,52.5C 257.167,52.5 256.833,52.5 256.5,52.5C 257.585,50.4131 259.251,49.0798 261.5,48.5 Z"/></g>
<g><path style="opacity:0.812" fill="#55873f" d="M 316.5,51.5 C 320.1,53.4302 323.1,56.0969 325.5,59.5C 322.569,57.9092 319.902,55.9092 317.5,53.5C 317.167,52.8333 316.833,52.1667 316.5,51.5 Z"/></g>
<g><path style="opacity:0.02" fill="#285214" d="M 245.5,52.5 C 245.833,52.5 246.167,52.5 246.5,52.5C 247.167,52.5 247.5,52.8333 247.5,53.5C 248.167,53.5 248.5,53.8333 248.5,54.5C 247.833,54.5 247.5,54.8333 247.5,55.5C 246.094,55.0269 245.427,54.0269 245.5,52.5 Z"/></g>
<g><path style="opacity:0.435" fill="#3c6c25" d="M 237.5,52.5 C 239.213,53.6354 239.88,55.302 239.5,57.5C 238.069,56.2196 237.402,54.5529 237.5,52.5 Z"/></g>
<g><path style="opacity:0.455" fill="#245316" d="M 316.5,54.5 C 318.587,55.5846 319.92,57.2512 320.5,59.5C 318.413,58.4154 317.08,56.7488 316.5,54.5 Z"/></g>
<g><path style="opacity:0.494" fill="#498330" d="M 256.5,52.5 C 256.5,53.1667 256.833,53.5 257.5,53.5C 256.071,56.3084 255.405,59.3084 255.5,62.5C 254.577,63.3029 253.577,63.4696 252.5,63C 250.942,60.9481 249.608,58.7815 248.5,56.5C 248.833,56.5 249.167,56.5 249.5,56.5C 250.885,57.5736 252.051,58.9069 253,60.5C 254.172,57.7689 255.339,55.1022 256.5,52.5 Z"/></g>
<g><path style="opacity:0.203" fill="#285b11" d="M 188.5,59.5 C 134.5,59.5 80.5,59.5 26.5,59.5C 26.5,59.1667 26.5,58.8333 26.5,58.5C 80.531,57.8244 134.531,58.1577 188.5,59.5 Z"/></g>
<g><path style="opacity:1" fill="#b9ddaa" d="M 261.5,49.5 C 261.833,49.5 262.167,49.5 262.5,49.5C 262.833,49.5 263.167,49.5 263.5,49.5C 262.105,50.6477 262.272,51.6477 264,52.5C 264.739,51.4258 265.739,50.7591 267,50.5C 269,51.1667 271,51.8333 273,52.5C 280.954,51.9451 288.954,51.9451 297,52.5C 302.216,52.4937 307.049,51.8271 311.5,50.5C 313.167,51.8333 314.833,53.1667 316.5,54.5C 317.08,56.7488 318.413,58.4154 320.5,59.5C 320.5,60.1667 320.5,60.8333 320.5,61.5C 321.028,62.8474 321.195,64.1807 321,65.5C 311.76,65.1861 301.76,64.5194 291,63.5C 284.597,64.3594 278.264,64.0261 272,62.5C 267.548,63.1409 263.048,63.8076 258.5,64.5C 258.709,65.086 259.043,65.586 259.5,66C 263.486,66.4988 267.486,66.6655 271.5,66.5C 271.5,67.5 271.5,68.5 271.5,69.5C 266.299,69.8117 261.299,68.9784 256.5,67C 255.62,65.6439 255.286,64.1439 255.5,62.5C 255.405,59.3084 256.071,56.3084 257.5,53.5C 257.5,53.1667 257.5,52.8333 257.5,52.5C 259.23,51.9744 260.564,50.9744 261.5,49.5 Z"/></g>
<g><path style="opacity:0.221" fill="#2f601a" d="M 402.5,59.5 C 402.167,59.5 401.833,59.5 401.5,59.5C 387.163,59.3334 372.829,59.5001 358.5,60C 354.932,60.6882 351.599,61.8548 348.5,63.5C 350.478,60.9877 353.145,59.4877 356.5,59C 369.688,58.7878 382.855,58.2878 396,57.5C 398.4,57.8017 400.566,58.4684 402.5,59.5 Z"/></g>
<g><path style="opacity:0.231" fill="#275613" d="M 521.5,59.5 C 516.5,59.5 511.5,59.5 506.5,59.5C 505.167,59.5 503.833,59.5 502.5,59.5C 503.261,58.6091 504.261,57.9424 505.5,57.5C 510.965,58.1237 516.298,58.7904 521.5,59.5 Z"/></g>
<g><path style="opacity:0.82" fill="#76a062" d="M 502.5,59.5 C 468.833,60.8333 435.167,60.8333 401.5,59.5C 401.833,59.5 402.167,59.5 402.5,59.5C 435.804,58.1729 469.137,58.1729 502.5,59.5 Z"/></g>
<g><path style="opacity:0.718" fill="#78ab62" d="M 526.5,63.5 C 526.5,62.5 526.5,61.5 526.5,60.5C 519.646,60.824 512.979,60.4907 506.5,59.5C 511.5,59.5 516.5,59.5 521.5,59.5C 523.575,59.3016 525.575,59.1349 527.5,59C 528.553,60.7493 528.22,62.2493 526.5,63.5 Z"/></g>
<g><path style="opacity:0.18" fill="#255212" d="M 239.5,57.5 C 241.163,59.4385 241.829,61.7718 241.5,64.5C 240.388,62.4006 239.721,60.0673 239.5,57.5 Z"/></g>
<g><path style="opacity:0.404" fill="#2e631d" d="M 328.5,58.5 C 329.239,58.369 329.906,58.5357 330.5,59C 330.538,64.0888 328.871,64.5888 325.5,60.5C 327.179,60.7148 328.179,60.0481 328.5,58.5 Z"/></g>
<g><path style="opacity:0.38" fill="#386a23" d="M 188.5,59.5 C 192.836,59.8369 196.503,61.5035 199.5,64.5C 195.646,63.0698 191.979,61.4031 188.5,59.5 Z"/></g>
<g><path style="opacity:1" fill="#b4daa3" d="M 245.5,52.5 C 245.427,54.0269 246.094,55.0269 247.5,55.5C 247.833,55.5 248.167,55.5 248.5,55.5C 248.5,55.8333 248.5,56.1667 248.5,56.5C 249.608,58.7815 250.942,60.9481 252.5,63C 253.577,63.4696 254.577,63.3029 255.5,62.5C 255.286,64.1439 255.62,65.6439 256.5,67C 261.299,68.9784 266.299,69.8117 271.5,69.5C 271.5,68.5 271.5,67.5 271.5,66.5C 267.486,66.6655 263.486,66.4988 259.5,66C 259.043,65.586 258.709,65.086 258.5,64.5C 263.048,63.8076 267.548,63.1409 272,62.5C 278.264,64.0261 284.597,64.3594 291,63.5C 301.76,64.5194 311.76,65.1861 321,65.5C 321.195,64.1807 321.028,62.8474 320.5,61.5C 321.5,62.1667 322.5,62.8333 323.5,63.5C 323.427,65.0269 324.094,66.0269 325.5,66.5C 326.674,67.5137 327.34,68.847 327.5,70.5C 327.357,72.2624 327.691,73.9291 328.5,75.5C 327.68,77.1112 326.346,77.7778 324.5,77.5C 322.223,76.5514 320.223,75.2181 318.5,73.5C 317.191,70.5493 314.857,69.2159 311.5,69.5C 311.5,70.8333 311.5,72.1667 311.5,73.5C 311.5,73.8333 311.5,74.1667 311.5,74.5C 309.72,75.9899 309.054,77.9899 309.5,80.5C 309.5,80.8333 309.5,81.1667 309.5,81.5C 308.115,84.3029 307.449,87.3029 307.5,90.5C 308.192,94.4977 308.359,98.4977 308,102.5C 307.329,101.748 306.496,101.414 305.5,101.5C 304.833,101.167 304.167,100.833 303.5,100.5C 303.5,100.167 303.5,99.8333 303.5,99.5C 302.223,97.05 300.723,94.7167 299,92.5C 299.15,94.5056 299.65,96.5056 300.5,98.5C 281.445,97.2451 262.612,96.2451 244,95.5C 242.513,96.2529 242.346,97.0862 243.5,98C 242.872,100.939 242.205,103.772 241.5,106.5C 241.802,103.941 241.468,101.607 240.5,99.5C 240.5,97.1667 240.5,94.8333 240.5,92.5C 242.057,87.431 242.724,82.0976 242.5,76.5C 242.499,72.3188 242.166,68.3188 241.5,64.5C 241.829,61.7718 241.163,59.4385 239.5,57.5C 239.88,55.302 239.213,53.6354 237.5,52.5C 236.599,51.7095 235.932,50.7095 235.5,49.5C 235.141,47.629 234.141,46.129 232.5,45C 232.833,44.8333 233.167,44.6667 233.5,44.5C 237.79,46.8003 241.79,49.467 245.5,52.5 Z"/></g>
<g><path style="opacity:0.294" fill="#2d5f19" d="M 320.5,59.5 C 322.262,60.2623 323.262,61.5956 323.5,63.5C 322.5,62.8333 321.5,62.1667 320.5,61.5C 320.5,60.8333 320.5,60.1667 320.5,59.5 Z"/></g>
<g><path style="opacity:0.024" fill="#17440e" d="M 199.5,64.5 C 201.027,64.427 202.027,65.0937 202.5,66.5C 200.973,66.573 199.973,65.9063 199.5,64.5 Z"/></g>
<g><path style="opacity:1" fill="#b7dca7" d="M 401.5,59.5 C 435.167,60.8333 468.833,60.8333 502.5,59.5C 503.833,59.5 505.167,59.5 506.5,59.5C 512.979,60.4907 519.646,60.824 526.5,60.5C 526.5,61.5 526.5,62.5 526.5,63.5C 525.094,63.9731 524.427,64.9731 524.5,66.5C 523.094,66.9731 522.427,67.9731 522.5,69.5C 521.921,72.3311 520.588,74.6644 518.5,76.5C 516.035,77.2317 514.035,78.565 512.5,80.5C 499.979,79.8033 487.479,78.8033 475,77.5C 473.262,78.1271 471.429,78.4604 469.5,78.5C 446.152,77.7519 422.819,76.7519 399.5,75.5C 389.322,75.3194 379.156,75.6527 369,76.5C 360.596,75.2198 352.096,74.3864 343.5,74C 342.944,73.6174 342.611,73.1174 342.5,72.5C 342.351,71.448 342.517,70.448 343,69.5C 345.04,67.6298 346.873,65.6298 348.5,63.5C 351.599,61.8548 354.932,60.6882 358.5,60C 372.829,59.5001 387.163,59.3334 401.5,59.5 Z"/></g>
<g><path style="opacity:0.016" fill="#18500b" d="M 526.5,63.5 C 526.573,65.0269 525.906,66.0269 524.5,66.5C 524.427,64.9731 525.094,63.9731 526.5,63.5 Z"/></g>
<g><path style="opacity:0.086" fill="#1a3a0e" d="M 323.5,63.5 C 324.906,63.9731 325.573,64.9731 325.5,66.5C 324.094,66.0269 323.427,65.0269 323.5,63.5 Z"/></g>
<g><path style="opacity:1" fill="#b3daa2" d="M 26.5,59.5 C 80.5,59.5 134.5,59.5 188.5,59.5C 191.979,61.4031 195.646,63.0698 199.5,64.5C 199.973,65.9063 200.973,66.573 202.5,66.5C 202.877,68.258 203.544,69.9246 204.5,71.5C 203.96,72.7481 203.293,73.9148 202.5,75C 204.437,75.1216 205.77,75.955 206.5,77.5C 200.369,78.0922 194.536,77.4255 189,75.5C 188.044,76.8941 186.711,77.5607 185,77.5C 167.837,76.0593 150.67,75.0593 133.5,74.5C 126.86,74.676 120.193,75.0093 113.5,75.5C 103.649,74.0443 93.8156,73.7109 84,74.5C 65.4975,73.8047 46.9975,73.1381 28.5,72.5C 27.5041,72.5858 26.6708,72.2524 26,71.5C 23.966,68.2936 22.1326,64.9603 20.5,61.5C 22.0225,59.7175 24.0225,59.0508 26.5,59.5 Z"/></g>
<g><path style="opacity:0.333" fill="#43712e" d="M 348.5,63.5 C 346.873,65.6298 345.04,67.6298 343,69.5C 342.517,70.448 342.351,71.448 342.5,72.5C 341.607,74.297 340.274,75.6304 338.5,76.5C 339.69,70.4242 343.024,66.0909 348.5,63.5 Z"/></g>
<g><path style="opacity:0.02" fill="#1c4d11" d="M 524.5,66.5 C 524.573,68.0269 523.906,69.0269 522.5,69.5C 522.427,67.9731 523.094,66.9731 524.5,66.5 Z"/></g>
<g><path style="opacity:0.91" fill="#5c8a46" d="M 318.5,73.5 C 316.742,73.1231 315.075,72.4565 313.5,71.5C 312.818,72.2427 312.151,72.9094 311.5,73.5C 311.5,72.1667 311.5,70.8333 311.5,69.5C 314.857,69.2159 317.191,70.5493 318.5,73.5 Z"/></g>
<g><path style="opacity:0.957" fill="#4f7c3c" d="M 26.5,58.5 C 26.5,58.8333 26.5,59.1667 26.5,59.5C 24.0225,59.0508 22.0225,59.7175 20.5,61.5C 22.1326,64.9603 23.966,68.2936 26,71.5C 26.6708,72.2524 27.5041,72.5858 28.5,72.5C 30.4845,76.8163 32.4845,81.1496 34.5,85.5C 27.4893,77.4904 22.156,68.4904 18.5,58.5C 21.3093,58.043 23.976,58.043 26.5,58.5 Z"/></g>
<g><path style="opacity:0.995" fill="#75a361" d="M 202.5,66.5 C 205.519,69.8707 207.519,73.8707 208.5,78.5C 207.833,78.1667 207.167,77.8333 206.5,77.5C 205.77,75.955 204.437,75.1216 202.5,75C 203.293,73.9148 203.96,72.7481 204.5,71.5C 203.544,69.9246 202.877,68.258 202.5,66.5 Z"/></g>
<g><path style="opacity:0.561" fill="#3d6e2a" d="M 311.5,74.5 C 311.405,76.7857 310.738,78.7857 309.5,80.5C 309.054,77.9899 309.72,75.9899 311.5,74.5 Z"/></g>
<g><path style="opacity:0.955" fill="#6c9a58" d="M 327.5,70.5 C 331.164,74.1788 332.164,78.5122 330.5,83.5C 327.916,81.9158 325.916,79.9158 324.5,77.5C 326.346,77.7778 327.68,77.1112 328.5,75.5C 327.691,73.9291 327.357,72.2624 327.5,70.5 Z"/></g>
<g><path style="opacity:1" fill="#b7dca7" d="M 28.5,72.5 C 46.9975,73.1381 65.4975,73.8047 84,74.5C 93.8156,73.7109 103.649,74.0443 113.5,75.5C 120.193,75.0093 126.86,74.676 133.5,74.5C 150.67,75.0593 167.837,76.0593 185,77.5C 186.711,77.5607 188.044,76.8941 189,75.5C 194.536,77.4255 200.369,78.0922 206.5,77.5C 207.167,77.8333 207.833,78.1667 208.5,78.5C 208.031,81.3933 209.031,83.3933 211.5,84.5C 213.341,86.8485 214.674,89.5152 215.5,92.5C 215.166,95.491 216.166,97.8243 218.5,99.5C 219.338,99.8417 219.672,100.508 219.5,101.5C 219.5,102.167 219.5,102.833 219.5,103.5C 217.691,100.997 215.191,99.3305 212,98.5C 206.804,99.7584 201.471,100.425 196,100.5C 190.92,100.488 185.92,100.154 181,99.5C 179.961,100.244 179.461,101.244 179.5,102.5C 177.754,100.748 175.754,99.4151 173.5,98.5C 172.508,98.6716 171.842,98.3382 171.5,97.5C 170.365,95.7868 168.698,95.1201 166.5,95.5C 128.336,94.6674 90.0022,94.1674 51.5,94C 48.5682,93.0467 45.5682,92.5467 42.5,92.5C 41.4154,90.4131 39.7488,89.0798 37.5,88.5C 36.8333,87.1667 35.8333,86.1667 34.5,85.5C 32.4845,81.1496 30.4845,76.8163 28.5,72.5 Z"/></g>
<g><path style="opacity:0.129" fill="#275813" d="M 241.5,64.5 C 242.166,68.3188 242.499,72.3188 242.5,76.5C 242.724,82.0976 242.057,87.431 240.5,92.5C 241.354,83.1945 241.687,73.8612 241.5,64.5 Z"/></g>
<g><path style="opacity:0.991" fill="#6d995b" d="M 518.5,76.5 C 516.912,80.4101 514.579,83.7435 511.5,86.5C 511.325,84.3792 511.659,82.3792 512.5,80.5C 514.035,78.565 516.035,77.2317 518.5,76.5 Z"/></g>
<g><path style="opacity:0.776" fill="#4d7f39" d="M 208.5,78.5 C 210.008,80.1815 211.008,82.1815 211.5,84.5C 209.031,83.3933 208.031,81.3933 208.5,78.5 Z"/></g>
<g><path style="opacity:1" fill="#aed59e" d="M 342.5,72.5 C 342.611,73.1174 342.944,73.6174 343.5,74C 352.096,74.3864 360.596,75.2198 369,76.5C 379.156,75.6527 389.322,75.3194 399.5,75.5C 422.819,76.7519 446.152,77.7519 469.5,78.5C 471.429,78.4604 473.262,78.1271 475,77.5C 487.479,78.8033 499.979,79.8033 512.5,80.5C 511.659,82.3792 511.325,84.3792 511.5,86.5C 511.19,88.1436 510.19,89.1436 508.5,89.5C 507.178,89.67 506.011,89.3366 505,88.5C 504.517,89.448 504.351,90.448 504.5,91.5C 502.821,91.2852 501.821,91.9519 501.5,93.5C 499.586,94.1847 497.586,94.6847 495.5,95C 457.168,95.5 418.835,95.6667 380.5,95.5C 376.61,94.7768 373.944,96.1102 372.5,99.5C 371.167,100.5 369.833,101.5 368.5,102.5C 367.833,102.5 367.167,102.5 366.5,102.5C 365.047,101.175 365.381,100.342 367.5,100C 357.5,99.6667 347.5,99.3333 337.5,99C 335.236,98.7638 333.069,98.2638 331,97.5C 330.764,99.1193 329.931,100.119 328.5,100.5C 331.48,95.5637 333.48,90.2303 334.5,84.5C 335.5,84.5 336.5,84.5 337.5,84.5C 337.833,81.8333 338.167,79.1667 338.5,76.5C 340.274,75.6304 341.607,74.297 342.5,72.5 Z"/></g>
<g><path style="opacity:0.984" fill="#669652" d="M 338.5,76.5 C 338.167,79.1667 337.833,81.8333 337.5,84.5C 336.5,84.5 335.5,84.5 334.5,84.5C 335.326,81.5152 336.659,78.8485 338.5,76.5 Z"/></g>
<g><path style="opacity:0.012" fill="#205d11" d="M 34.5,85.5 C 35.8333,86.1667 36.8333,87.1667 37.5,88.5C 35.5,88.5 34.5,87.5 34.5,85.5 Z"/></g>
<g><path style="opacity:0.973" fill="#5e8948" d="M 508.5,89.5 C 506.664,91.588 504.331,92.9213 501.5,93.5C 501.821,91.9519 502.821,91.2852 504.5,91.5C 504.351,90.448 504.517,89.448 505,88.5C 506.011,89.3366 507.178,89.67 508.5,89.5 Z"/></g>
<g><path style="opacity:0.733" fill="#5d884b" d="M 309.5,81.5 C 308.897,88.7052 308.897,96.0386 309.5,103.5C 308.798,104.116 307.798,104.116 306.5,103.5C 306.167,102.833 305.833,102.167 305.5,101.5C 306.496,101.414 307.329,101.748 308,102.5C 308.359,98.4977 308.192,94.4977 307.5,90.5C 307.449,87.3029 308.115,84.3029 309.5,81.5 Z"/></g>
<g><path style="opacity:0.2" fill="#31631e" d="M 37.5,88.5 C 39.7488,89.0798 41.4154,90.4131 42.5,92.5C 40.2512,91.9202 38.5846,90.5869 37.5,88.5 Z"/></g>
<g><path style="opacity:0.097" fill="#1c470a" d="M 42.5,92.5 C 45.5682,92.5467 48.5682,93.0467 51.5,94C 90.0022,94.1674 128.336,94.6674 166.5,95.5C 127.499,95.6667 88.4986,95.5 49.5,95C 46.8958,94.6097 44.5625,93.7763 42.5,92.5 Z"/></g>
<g><path style="opacity:0.733" fill="#4c7c36" d="M 334.5,84.5 C 333.48,90.2303 331.48,95.5637 328.5,100.5C 328.5,101.833 327.833,102.5 326.5,102.5C 328.656,96.1957 331.322,90.1957 334.5,84.5 Z"/></g>
<g><path style="opacity:0.557" fill="#386223" d="M 166.5,95.5 C 168.698,95.1201 170.365,95.7868 171.5,97.5C 169.597,97.2041 167.93,96.5375 166.5,95.5 Z"/></g>
<g><path style="opacity:0.729" fill="#487834" d="M 215.5,92.5 C 217.065,94.5093 218.065,96.8427 218.5,99.5C 216.166,97.8243 215.166,95.491 215.5,92.5 Z"/></g>
<g><path style="opacity:0.29" fill="#305c1e" d="M 380.5,95.5 C 377.631,96.2679 374.964,97.6012 372.5,99.5C 373.944,96.1102 376.61,94.7768 380.5,95.5 Z"/></g>
<g><path style="opacity:0.502" fill="#56903c" d="M 303.5,99.5 C 302.833,99.5 302.5,99.8333 302.5,100.5C 301.833,99.8333 301.167,99.1667 300.5,98.5C 299.65,96.5056 299.15,94.5056 299,92.5C 300.723,94.7167 302.223,97.05 303.5,99.5 Z"/></g>
<g><path style="opacity:1" fill="#bddfae" d="M 300.5,98.5 C 301.167,99.1667 301.833,99.8333 302.5,100.5C 302.833,100.5 303.167,100.5 303.5,100.5C 303.66,102.153 304.326,103.486 305.5,104.5C 305.394,107.615 306.394,110.281 308.5,112.5C 309.466,115.957 310.799,119.29 312.5,122.5C 311.711,122.783 311.044,123.283 310.5,124C 301.447,124.846 292.447,124.513 283.5,123C 290.824,122.943 298.157,123.109 305.5,123.5C 305.421,122.07 305.754,120.736 306.5,119.5C 297.854,118.315 289.188,117.815 280.5,118C 279.663,119.011 279.33,120.178 279.5,121.5C 278.607,119.703 277.274,118.37 275.5,117.5C 275.853,115.365 275.02,114.032 273,113.5C 271.405,114.356 270.572,115.689 270.5,117.5C 270.167,117.5 269.833,117.5 269.5,117.5C 269.657,116.127 269.49,114.793 269,113.5C 267.302,114.733 265.302,115.4 263,115.5C 255.125,115.008 247.291,114.341 239.5,113.5C 238.066,115.22 237.233,117.22 237,119.5C 235.6,120.748 234.1,121.748 232.5,122.5C 232.66,120.847 233.326,119.514 234.5,118.5C 235.906,118.027 236.573,117.027 236.5,115.5C 236.66,113.847 237.326,112.514 238.5,111.5C 240.047,110.232 241.047,108.565 241.5,106.5C 242.205,103.772 242.872,100.939 243.5,98C 242.346,97.0862 242.513,96.2529 244,95.5C 262.612,96.2451 281.445,97.2451 300.5,98.5 Z"/></g>
<g><path style="opacity:0.059" fill="#122701" d="M 303.5,100.5 C 304.167,100.833 304.833,101.167 305.5,101.5C 305.833,102.167 306.167,102.833 306.5,103.5C 305.833,103.5 305.5,103.833 305.5,104.5C 304.326,103.486 303.66,102.153 303.5,100.5 Z"/></g>
<g><path style="opacity:0.125" fill="#295017" d="M 240.5,99.5 C 241.468,101.607 241.802,103.941 241.5,106.5C 241.047,108.565 240.047,110.232 238.5,111.5C 240.128,107.405 240.795,103.405 240.5,99.5 Z"/></g>
<g><path style="opacity:1" fill="#bcdead" d="M 366.5,102.5 C 364.285,107.932 361.785,113.265 359,118.5C 358.51,119.793 358.343,121.127 358.5,122.5C 356.818,123.827 355.485,125.494 354.5,127.5C 354.461,126.417 354.127,125.417 353.5,124.5C 356.661,121.832 356.161,120.499 352,120.5C 342.448,120.994 332.948,120.327 323.5,118.5C 322.14,119.18 320.807,119.847 319.5,120.5C 319.833,119.167 320.167,117.833 320.5,116.5C 321.108,113.673 322.108,111.007 323.5,108.5C 325.213,107.365 325.88,105.698 325.5,103.5C 325.5,102.833 325.833,102.5 326.5,102.5C 327.833,102.5 328.5,101.833 328.5,100.5C 329.931,100.119 330.764,99.1193 331,97.5C 333.069,98.2638 335.236,98.7638 337.5,99C 347.5,99.3333 357.5,99.6667 367.5,100C 365.381,100.342 365.047,101.175 366.5,102.5 Z"/></g>
<g><path style="opacity:0.216" fill="#356421" d="M 219.5,101.5 C 222.776,105.961 225.109,110.961 226.5,116.5C 223.912,112.326 221.579,107.993 219.5,103.5C 219.5,102.833 219.5,102.167 219.5,101.5 Z"/></g>
<g><path style="opacity:0.067" fill="#0d3f03" d="M 306.5,104.5 C 306.5,104.167 306.5,103.833 306.5,103.5C 307.798,104.116 308.798,104.116 309.5,103.5C 310.885,104.302 310.718,104.969 309,105.5C 308.098,105.257 307.265,104.923 306.5,104.5 Z"/></g>
<g><path style="opacity:0.596" fill="#3b6326" d="M 325.5,103.5 C 325.88,105.698 325.213,107.365 323.5,108.5C 323.796,106.597 324.463,104.93 325.5,103.5 Z"/></g>
<g><path style="opacity:0.108" fill="#1b4608" d="M 156.5,110.5 C 119.827,110.167 83.1606,110.5 46.5,111.5C 47.1272,112.417 47.4606,113.417 47.5,114.5C 45.7868,113.365 45.1201,111.698 45.5,109.5C 82.6704,109.168 119.67,109.502 156.5,110.5 Z"/></g>
<g><path style="opacity:0.42" fill="#365e29" d="M 305.5,104.5 C 305.833,104.5 306.167,104.5 306.5,104.5C 307.117,107.355 308.117,110.022 309.5,112.5C 309.167,112.5 308.833,112.5 308.5,112.5C 306.394,110.281 305.394,107.615 305.5,104.5 Z"/></g>
<g><path style="opacity:0.677" fill="#5a8b46" d="M 498.5,115.5 C 498.539,114.417 498.873,113.417 499.5,112.5C 462.171,111.333 424.838,111.167 387.5,112C 385.559,113.903 383.226,114.736 380.5,114.5C 382.89,111.972 385.89,110.472 389.5,110C 426.5,109.333 463.5,109.333 500.5,110C 501.446,112.298 500.779,114.132 498.5,115.5 Z"/></g>
<g><path style="opacity:1" fill="#c2e2b5" d="M 156.5,110.5 C 159.256,112.204 162.256,113.537 165.5,114.5C 166.167,115.833 167.167,116.833 168.5,117.5C 168.738,119.404 169.738,120.738 171.5,121.5C 171.75,123.674 172.75,125.341 174.5,126.5C 174.12,128.698 174.787,130.365 176.5,131.5C 177.338,131.842 177.672,132.508 177.5,133.5C 177.5,134.167 177.5,134.833 177.5,135.5C 176.849,134.909 176.182,134.243 175.5,133.5C 174.5,134.833 173.5,134.833 172.5,133.5C 171.41,132.609 171.41,131.609 172.5,130.5C 158.32,129.601 144.154,128.601 130,127.5C 114.041,127.711 98.3742,127.711 83,127.5C 79.1357,127.67 75.4691,127.003 72,125.5C 71.1612,126.624 69.9945,127.291 68.5,127.5C 66.1667,126.833 63.8333,126.167 61.5,125.5C 59.0182,125.11 57.6848,126.11 57.5,128.5C 56.7281,127.306 55.7281,126.306 54.5,125.5C 54.573,123.973 53.9063,122.973 52.5,122.5C 51.6167,119.296 49.9501,116.629 47.5,114.5C 47.4606,113.417 47.1272,112.417 46.5,111.5C 83.1606,110.5 119.827,110.167 156.5,110.5 Z"/></g>
<g><path style="opacity:0.522" fill="#396824" d="M 156.5,110.5 C 160.165,110.502 163.165,111.835 165.5,114.5C 162.256,113.537 159.256,112.204 156.5,110.5 Z"/></g>
<g><path style="opacity:1" fill="#bfe0b1" d="M 498.5,115.5 C 498.672,116.492 498.338,117.158 497.5,117.5C 495.674,119.147 494.34,121.147 493.5,123.5C 491.75,124.659 490.75,126.326 490.5,128.5C 490.573,130.027 489.906,131.027 488.5,131.5C 488.083,128.921 488.75,126.754 490.5,125C 468.008,123.026 445.675,122.526 423.5,123.5C 422.062,123.281 420.729,122.781 419.5,122C 404.426,121.184 389.426,121.351 374.5,122.5C 374.5,121.833 374.5,121.167 374.5,120.5C 376.833,118.833 378.833,116.833 380.5,114.5C 383.226,114.736 385.559,113.903 387.5,112C 424.838,111.167 462.171,111.333 499.5,112.5C 498.873,113.417 498.539,114.417 498.5,115.5 Z"/></g>
<g><path style="opacity:0.012" fill="#1e5d0d" d="M 165.5,114.5 C 167.5,114.5 168.5,115.5 168.5,117.5C 167.167,116.833 166.167,115.833 165.5,114.5 Z"/></g>
<g><path style="opacity:0.999" fill="#c2e2b4" d="M 219.5,103.5 C 221.579,107.993 223.912,112.326 226.5,116.5C 226.031,119.393 227.031,121.393 229.5,122.5C 230.5,126.5 231.5,126.5 232.5,122.5C 234.1,121.748 235.6,120.748 237,119.5C 237.233,117.22 238.066,115.22 239.5,113.5C 247.291,114.341 255.125,115.008 263,115.5C 265.302,115.4 267.302,114.733 269,113.5C 269.49,114.793 269.657,116.127 269.5,117.5C 268.559,119.05 267.893,120.716 267.5,122.5C 267.672,123.492 267.338,124.158 266.5,124.5C 264.076,127.008 262.41,130.008 261.5,133.5C 259.926,134.984 258.593,136.651 257.5,138.5C 257.565,136.082 257.065,133.749 256,131.5C 237.554,132.33 219.054,131.997 200.5,130.5C 198.048,130.539 196.048,131.206 194.5,132.5C 190.044,122.255 185.044,112.255 179.5,102.5C 179.461,101.244 179.961,100.244 181,99.5C 185.92,100.154 190.92,100.488 196,100.5C 201.471,100.425 206.804,99.7584 212,98.5C 215.191,99.3305 217.691,100.997 219.5,103.5 Z"/></g>
<g><path style="opacity:0.886" fill="#568343" d="M 308.5,112.5 C 308.833,112.5 309.167,112.5 309.5,112.5C 311.375,115.588 312.708,118.922 313.5,122.5C 313.167,122.5 312.833,122.5 312.5,122.5C 310.799,119.29 309.466,115.957 308.5,112.5 Z"/></g>
<g><path style="opacity:0.196" fill="#2d5b19" d="M 47.5,114.5 C 49.9501,116.629 51.6167,119.296 52.5,122.5C 50.0499,120.371 48.3833,117.704 47.5,114.5 Z"/></g>
<g><path style="opacity:0.118" fill="#295717" d="M 275.5,117.5 C 274.685,116.571 273.852,115.571 273,114.5C 272.623,115.942 271.79,116.942 270.5,117.5C 270.572,115.689 271.405,114.356 273,113.5C 275.02,114.032 275.853,115.365 275.5,117.5 Z"/></g>
<g><path style="opacity:0.216" fill="#245714" d="M 236.5,115.5 C 236.573,117.027 235.906,118.027 234.5,118.5C 234.427,116.973 235.094,115.973 236.5,115.5 Z"/></g>
<g><path style="opacity:1" fill="#c4e3b6" d="M 312.5,122.5 C 312.833,122.5 313.167,122.5 313.5,122.5C 314.14,125.682 315.14,126.015 316.5,123.5C 317.728,122.694 318.728,121.694 319.5,120.5C 320.807,119.847 322.14,119.18 323.5,118.5C 332.948,120.327 342.448,120.994 352,120.5C 356.161,120.499 356.661,121.832 353.5,124.5C 354.127,125.417 354.461,126.417 354.5,127.5C 353.962,129.117 353.629,130.784 353.5,132.5C 351.376,134.059 349.709,136.059 348.5,138.5C 347.951,136.313 346.785,135.646 345,136.5C 343.601,135.773 342.101,135.273 340.5,135C 326.322,134.734 312.156,134.234 298,133.5C 292.775,133.46 290.275,135.793 290.5,140.5C 288.987,137.476 286.987,134.809 284.5,132.5C 283.091,128.684 281.424,125.017 279.5,121.5C 279.33,120.178 279.663,119.011 280.5,118C 289.188,117.815 297.854,118.315 306.5,119.5C 305.754,120.736 305.421,122.07 305.5,123.5C 298.157,123.109 290.824,122.943 283.5,123C 292.447,124.513 301.447,124.846 310.5,124C 311.044,123.283 311.711,122.783 312.5,122.5 Z"/></g>
<g><path style="opacity:0.169" fill="#305e1e" d="M 366.5,102.5 C 367.167,102.5 367.833,102.5 368.5,102.5C 365.338,109.363 362.005,116.03 358.5,122.5C 358.343,121.127 358.51,119.793 359,118.5C 361.785,113.265 364.285,107.932 366.5,102.5 Z"/></g>
<g><path style="opacity:0.635" fill="#45762c" d="M 168.5,117.5 C 170.262,118.262 171.262,119.596 171.5,121.5C 169.738,120.738 168.738,119.404 168.5,117.5 Z"/></g>
<g><path style="opacity:0.404" fill="#355f23" d="M 275.5,117.5 C 277.274,118.37 278.607,119.703 279.5,121.5C 281.424,125.017 283.091,128.684 284.5,132.5C 281.11,127.767 278.11,122.767 275.5,117.5 Z"/></g>
<g><path style="opacity:0.62" fill="#518739" d="M 380.5,114.5 C 378.833,116.833 376.833,118.833 374.5,120.5C 375.5,117.5 377.5,115.5 380.5,114.5 Z"/></g>
<g><path style="opacity:0.706" fill="#487733" d="M 226.5,116.5 C 228.008,118.181 229.008,120.181 229.5,122.5C 227.031,121.393 226.031,119.393 226.5,116.5 Z"/></g>
<g><path style="opacity:0.18" fill="#295c15" d="M 269.5,117.5 C 269.833,117.5 270.167,117.5 270.5,117.5C 270.25,119.674 269.25,121.341 267.5,122.5C 267.893,120.716 268.559,119.05 269.5,117.5 Z"/></g>
<g><path style="opacity:0.11" fill="#235512" d="M 320.5,116.5 C 320.167,117.833 319.833,119.167 319.5,120.5C 318.728,121.694 317.728,122.694 316.5,123.5C 317.079,120.669 318.412,118.336 320.5,116.5 Z"/></g>
<g><path style="opacity:1" fill="#c5e3b7" d="M 488.5,131.5 C 487.094,131.973 486.427,132.973 486.5,134.5C 485.094,134.973 484.427,135.973 484.5,137.5C 484.167,138.5 483.5,139.167 482.5,139.5C 481.06,140.363 479.726,140.363 478.5,139.5C 477.05,142.393 474.716,144.059 471.5,144.5C 435.827,144.833 400.16,144.5 364.5,143.5C 367.476,136.191 370.809,129.191 374.5,122.5C 389.426,121.351 404.426,121.184 419.5,122C 420.729,122.781 422.062,123.281 423.5,123.5C 445.675,122.526 468.008,123.026 490.5,125C 488.75,126.754 488.083,128.921 488.5,131.5 Z"/></g>
<g><path style="opacity:0.047" fill="#2a5116" d="M 497.5,117.5 C 497.155,120.198 495.822,122.198 493.5,123.5C 494.34,121.147 495.674,119.147 497.5,117.5 Z"/></g>
<g><path style="opacity:0.094" fill="#244a12" d="M 171.5,121.5 C 173.25,122.659 174.25,124.326 174.5,126.5C 172.75,125.341 171.75,123.674 171.5,121.5 Z"/></g>
<g><path style="opacity:0.055" fill="#1c4a0c" d="M 313.5,122.5 C 314.391,123.11 315.391,123.443 316.5,123.5C 315.14,126.015 314.14,125.682 313.5,122.5 Z"/></g>
<g><path style="opacity:0.075" fill="#1e440e" d="M 52.5,122.5 C 53.9063,122.973 54.573,123.973 54.5,125.5C 53.0937,125.027 52.427,124.027 52.5,122.5 Z"/></g>
<g><path style="opacity:0.106" fill="#1e3f0e" d="M 229.5,122.5 C 230.5,123.833 231.5,123.833 232.5,122.5C 231.5,126.5 230.5,126.5 229.5,122.5 Z"/></g>
<g><path style="opacity:1" fill="#c7e4ba" d="M 177.5,135.5 C 178.167,135.833 178.833,136.167 179.5,136.5C 179.387,139.049 180.054,141.382 181.5,143.5C 179.257,144.474 176.924,144.808 174.5,144.5C 142.499,144.947 110.499,145.113 78.5,145C 74.4042,144.116 70.4042,142.95 66.5,141.5C 65.0892,139.086 63.0892,137.419 60.5,136.5C 60.5,136.167 60.5,135.833 60.5,135.5C 60.573,133.973 59.9063,132.973 58.5,132.5C 57.6618,132.158 57.3284,131.492 57.5,130.5C 57.5,129.833 57.5,129.167 57.5,128.5C 57.6848,126.11 59.0182,125.11 61.5,125.5C 63.8333,126.167 66.1667,126.833 68.5,127.5C 69.9945,127.291 71.1612,126.624 72,125.5C 75.4691,127.003 79.1357,127.67 83,127.5C 98.3742,127.711 114.041,127.711 130,127.5C 144.154,128.601 158.32,129.601 172.5,130.5C 171.41,131.609 171.41,132.609 172.5,133.5C 173.5,134.833 174.5,134.833 175.5,133.5C 176.182,134.243 176.849,134.909 177.5,135.5 Z"/></g>
<g><path style="opacity:0.569" fill="#4f8238" d="M 374.5,120.5 C 374.5,121.167 374.5,121.833 374.5,122.5C 370.809,129.191 367.476,136.191 364.5,143.5C 400.16,144.5 435.827,144.833 471.5,144.5C 471.5,144.833 471.5,145.167 471.5,145.5C 439.572,146.091 407.572,146.091 375.5,145.5C 371.298,145.817 367.298,145.483 363.5,144.5C 364.16,140.687 365.326,137.021 367,133.5C 369.232,128.92 371.732,124.586 374.5,120.5 Z"/></g>
<g><path style="opacity:0.196" fill="#2e5719" d="M 493.5,123.5 C 493.25,125.674 492.25,127.341 490.5,128.5C 490.75,126.326 491.75,124.659 493.5,123.5 Z"/></g>
<g><path style="opacity:0.024" fill="#1e4115" d="M 358.5,122.5 C 357.343,126.147 355.677,129.48 353.5,132.5C 353.629,130.784 353.962,129.117 354.5,127.5C 355.485,125.494 356.818,123.827 358.5,122.5 Z"/></g>
<g><path style="opacity:0.106" fill="#265013" d="M 54.5,125.5 C 55.7281,126.306 56.7281,127.306 57.5,128.5C 57.5,129.167 57.5,129.833 57.5,130.5C 55.7497,129.341 54.7497,127.674 54.5,125.5 Z"/></g>
<g><path style="opacity:0.18" fill="#295a16" d="M 266.5,124.5 C 265.59,127.992 263.924,130.992 261.5,133.5C 262.41,130.008 264.076,127.008 266.5,124.5 Z"/></g>
<g><path style="opacity:0.71" fill="#477833" d="M 174.5,126.5 C 175.537,127.93 176.204,129.597 176.5,131.5C 174.787,130.365 174.12,128.698 174.5,126.5 Z"/></g>
<g><path style="opacity:1" fill="#c9e5bc" d="M 257.5,138.5 C 256.069,141.701 254.403,144.701 252.5,147.5C 251.972,146.279 251.305,145.113 250.5,144C 233.846,142.816 217.179,142.483 200.5,143C 201.167,143.333 201.833,143.667 202.5,144C 201.748,144.671 201.414,145.504 201.5,146.5C 200.079,143.991 198.412,141.657 196.5,139.5C 196.6,136.892 195.933,134.558 194.5,132.5C 196.048,131.206 198.048,130.539 200.5,130.5C 219.054,131.997 237.554,132.33 256,131.5C 257.065,133.749 257.565,136.082 257.5,138.5 Z"/></g>
<g><path style="opacity:0.2" fill="#315e1f" d="M 173.5,98.5 C 175.754,99.4151 177.754,100.748 179.5,102.5C 185.044,112.255 190.044,122.255 194.5,132.5C 195.933,134.558 196.6,136.892 196.5,139.5C 191.046,128.592 185.546,117.592 180,106.5C 177.999,103.669 175.833,101.003 173.5,98.5 Z"/></g>
<g><path style="opacity:1" fill="#cae6bd" d="M 348.5,138.5 C 347.03,142.912 345.363,147.245 343.5,151.5C 342.167,153.5 340.833,155.5 339.5,157.5C 339.67,156.178 339.337,155.011 338.5,154C 336.112,153.697 333.945,152.863 332,151.5C 321.086,151.938 310.253,152.438 299.5,153C 301.5,153.333 303.5,153.667 305.5,154C 302.949,154.002 300.949,154.836 299.5,156.5C 295.997,151.498 292.997,146.165 290.5,140.5C 290.275,135.793 292.775,133.46 298,133.5C 312.156,134.234 326.322,134.734 340.5,135C 342.101,135.273 343.601,135.773 345,136.5C 346.785,135.646 347.951,136.313 348.5,138.5 Z"/></g>
<g><path style="opacity:0.161" fill="#30661d" d="M 488.5,131.5 C 488.573,133.027 487.906,134.027 486.5,134.5C 486.427,132.973 487.094,131.973 488.5,131.5 Z"/></g>
<g><path style="opacity:0.118" fill="#2b5713" d="M 58.5,132.5 C 59.9063,132.973 60.573,133.973 60.5,135.5C 59.0937,135.027 58.427,134.027 58.5,132.5 Z"/></g>
<g><path style="opacity:0.271" fill="#386d20" d="M 177.5,133.5 C 178.906,133.973 179.573,134.973 179.5,136.5C 178.833,136.167 178.167,135.833 177.5,135.5C 177.5,134.833 177.5,134.167 177.5,133.5 Z"/></g>
<g><path style="opacity:0.392" fill="#2c5d16" d="M 60.5,136.5 C 63.0892,137.419 65.0892,139.086 66.5,141.5C 63.9108,140.581 61.9108,138.914 60.5,136.5 Z"/></g>
<g><path style="opacity:0.078" fill="#214e15" d="M 486.5,134.5 C 486.573,136.027 485.906,137.027 484.5,137.5C 484.427,135.973 485.094,134.973 486.5,134.5 Z"/></g>
<g><path style="opacity:0.102" fill="#2c541b" d="M 261.5,133.5 C 256.842,144.157 251.176,154.157 244.5,163.5C 247.153,158.193 249.82,152.86 252.5,147.5C 254.403,144.701 256.069,141.701 257.5,138.5C 258.593,136.651 259.926,134.984 261.5,133.5 Z"/></g>
<g><path style="opacity:0.318" fill="#376b23" d="M 353.5,132.5 C 350.39,139.057 347.057,145.391 343.5,151.5C 345.363,147.245 347.03,142.912 348.5,138.5C 349.709,136.059 351.376,134.059 353.5,132.5 Z"/></g>
<g><path style="opacity:0.067" fill="#234c15" d="M 196.5,139.5 C 198.412,141.657 200.079,143.991 201.5,146.5C 201.5,147.167 201.5,147.833 201.5,148.5C 199.076,145.992 197.41,142.992 196.5,139.5 Z"/></g>
<g><path style="opacity:0.565" fill="#65994d" d="M 179.5,136.5 C 181.293,138.426 182.293,140.759 182.5,143.5C 181.082,145.308 179.082,145.975 176.5,145.5C 175.833,145.5 175.167,145.5 174.5,145.5C 174.5,145.167 174.5,144.833 174.5,144.5C 176.924,144.808 179.257,144.474 181.5,143.5C 180.054,141.382 179.387,139.049 179.5,136.5 Z"/></g>
<g><path style="opacity:0.012" fill="#427331" d="M 482.5,139.5 C 479.6,142.786 475.933,144.786 471.5,145.5C 471.5,145.167 471.5,144.833 471.5,144.5C 474.716,144.059 477.05,142.393 478.5,139.5C 479.726,140.363 481.06,140.363 482.5,139.5 Z"/></g>
<g><path style="opacity:0.096" fill="#1f4a0d" d="M 66.5,141.5 C 70.4042,142.95 74.4042,144.116 78.5,145C 110.499,145.113 142.499,144.947 174.5,144.5C 174.5,144.833 174.5,145.167 174.5,145.5C 142.166,146.014 109.833,146.18 77.5,146C 73.2007,145.741 69.534,144.241 66.5,141.5 Z"/></g>
<g><path style="opacity:0.208" fill="#163f0a" d="M 182.5,143.5 C 183.404,144.209 183.737,145.209 183.5,146.5C 180.941,146.802 178.607,146.468 176.5,145.5C 179.082,145.975 181.082,145.308 182.5,143.5 Z"/></g>
<g><path style="opacity:0.02" fill="#073703" d="M 363.5,144.5 C 367.298,145.483 371.298,145.817 375.5,145.5C 371.317,146.811 366.984,146.811 362.5,145.5C 362.624,144.893 362.957,144.56 363.5,144.5 Z"/></g>
<g><path style="opacity:0.169" fill="#204d0e" d="M 275.5,147.5 C 274.295,145.862 272.962,145.529 271.5,146.5C 271.47,145.503 271.97,144.836 273,144.5C 274.749,144.748 275.582,145.748 275.5,147.5 Z"/></g>
<g><path style="opacity:0.997" fill="#afd09f" d="M 275.5,147.5 C 277.083,149.663 278.416,151.996 279.5,154.5C 279.5,155.167 279.5,155.833 279.5,156.5C 278.317,155.496 276.984,154.662 275.5,154C 276.236,150.801 275.403,150.635 273,153.5C 272.333,152.833 271.667,152.167 271,151.5C 270.051,153.093 268.885,154.426 267.5,155.5C 267.833,154.167 268.167,152.833 268.5,151.5C 269.906,151.027 270.573,150.027 270.5,148.5C 270.328,147.508 270.662,146.842 271.5,146.5C 272.962,145.529 274.295,145.862 275.5,147.5 Z"/></g>
<g><path style="opacity:0.275" fill="#2f571d" d="M 270.5,148.5 C 270.573,150.027 269.906,151.027 268.5,151.5C 268.427,149.973 269.094,148.973 270.5,148.5 Z"/></g>
<g><path style="opacity:0.106" fill="#2b5819" d="M 268.5,151.5 C 268.167,152.833 267.833,154.167 267.5,155.5C 266.407,157.349 265.074,159.016 263.5,160.5C 264.41,157.008 266.076,154.008 268.5,151.5 Z"/></g>
<g><path style="opacity:0.898" fill="#598746" d="M 279.5,154.5 C 282.247,157.723 284.247,161.389 285.5,165.5C 282.775,163.005 280.775,160.005 279.5,156.5C 279.5,155.833 279.5,155.167 279.5,154.5 Z"/></g>
<g><path style="opacity:0.098" fill="#214e0e" d="M 114.5,160.5 C 114.5,160.833 114.5,161.167 114.5,161.5C 104.167,161.5 93.8333,161.5 83.5,161.5C 83.6287,163.216 83.962,164.883 84.5,166.5C 82.221,165.132 81.5543,163.298 82.5,161C 93.1615,160.5 103.828,160.333 114.5,160.5 Z"/></g>
<g><path style="opacity:0.344" fill="#386c21" d="M 161.5,160.5 C 161.5,160.833 161.5,161.167 161.5,161.5C 145.833,161.5 130.167,161.5 114.5,161.5C 114.5,161.167 114.5,160.833 114.5,160.5C 130.199,160.004 145.865,160.004 161.5,160.5 Z"/></g>
<g><path style="opacity:0.118" fill="#285614" d="M 161.5,161.5 C 161.5,161.167 161.5,160.833 161.5,160.5C 169.903,160.13 178.236,160.63 186.5,162C 191.348,164.35 195.015,167.85 197.5,172.5C 194.703,170.205 192.036,167.705 189.5,165C 186.911,163.803 184.244,162.803 181.5,162C 174.842,161.5 168.175,161.334 161.5,161.5 Z"/></g>
<g><path style="opacity:0.338" fill="#2c5e17" d="M 463.5,163.5 C 455.903,161.533 447.903,160.866 439.5,161.5C 418.5,161.5 397.5,161.5 376.5,161.5C 372.167,161.5 367.833,161.5 363.5,161.5C 396.685,159.709 430.352,159.542 464.5,161C 465.566,162.159 465.233,162.992 463.5,163.5 Z"/></g>
<g><path style="opacity:0.761" fill="#83ae70" d="M 363.5,161.5 C 367.833,161.5 372.167,161.5 376.5,161.5C 370.699,162.682 364.699,163.348 358.5,163.5C 359.78,162.069 361.447,161.402 363.5,161.5 Z"/></g>
<g><path style="opacity:0.782" fill="#a7d094" d="M 439.5,161.5 C 447.903,160.866 455.903,161.533 463.5,163.5C 463.5,164.167 463.5,164.833 463.5,165.5C 463.167,165.5 462.833,165.5 462.5,165.5C 462.5,164.5 462.5,163.5 462.5,162.5C 454.648,162.825 446.982,162.492 439.5,161.5 Z"/></g>
<g><path style="opacity:1" fill="#d4ebca" d="M 114.5,161.5 C 130.167,161.5 145.833,161.5 161.5,161.5C 168.175,161.334 174.842,161.5 181.5,162C 184.244,162.803 186.911,163.803 189.5,165C 192.036,167.705 194.703,170.205 197.5,172.5C 197.427,174.027 198.094,175.027 199.5,175.5C 199.517,177.565 199.85,179.565 200.5,181.5C 196.849,182.165 193.015,182.499 189,182.5C 161.173,181.481 133.339,180.647 105.5,180C 101.375,178.99 97.3755,178.823 93.5,179.5C 90.8573,174.868 87.8573,170.535 84.5,166.5C 83.962,164.883 83.6287,163.216 83.5,161.5C 93.8333,161.5 104.167,161.5 114.5,161.5 Z"/></g>
<g><path style="opacity:0.141" fill="#244e15" d="M 343.5,151.5 C 341.956,156.919 339.622,161.919 336.5,166.5C 337.213,163.406 338.213,160.406 339.5,157.5C 340.833,155.5 342.167,153.5 343.5,151.5 Z"/></g>
<g><path style="opacity:1" fill="#d2eac7" d="M 376.5,161.5 C 397.5,161.5 418.5,161.5 439.5,161.5C 446.982,162.492 454.648,162.825 462.5,162.5C 462.5,163.5 462.5,164.5 462.5,165.5C 460.05,167.629 458.383,170.296 457.5,173.5C 456.272,174.306 455.272,175.306 454.5,176.5C 454.586,175.504 454.252,174.671 453.5,174C 433.067,174.003 412.734,173.169 392.5,171.5C 380.006,171.475 367.506,171.808 355,172.5C 354.333,171.833 353.667,171.167 353,170.5C 352.583,171.756 351.75,172.423 350.5,172.5C 350.5,171.833 350.5,171.167 350.5,170.5C 353.582,168.628 356.249,166.295 358.5,163.5C 364.699,163.348 370.699,162.682 376.5,161.5 Z"/></g>
<g><path style="opacity:0.176" fill="#2c5f18" d="M 262.5,162.5 C 262.25,164.674 261.25,166.341 259.5,167.5C 259.75,165.326 260.75,163.659 262.5,162.5 Z"/></g>
<g><path style="opacity:0.365" fill="#376525" d="M 284.5,132.5 C 286.987,134.809 288.987,137.476 290.5,140.5C 292.997,146.165 295.997,151.498 299.5,156.5C 305.933,169.038 312.6,181.371 319.5,193.5C 317.567,192.358 316.067,190.692 315,188.5C 304.555,169.939 294.388,151.273 284.5,132.5 Z"/></g>
<g><path style="opacity:0.255" fill="#31601d" d="M 201.5,148.5 C 208.664,161.496 215.331,174.829 221.5,188.5C 213.793,175.752 207.126,162.419 201.5,148.5 Z"/></g>
<g><path style="opacity:0.102" fill="#2b5a16" d="M 244.5,163.5 C 244.573,165.027 243.906,166.027 242.5,166.5C 242.427,164.973 243.094,163.973 244.5,163.5 Z"/></g>
<g><path style="opacity:1" fill="#d0e9c6" d="M 252.5,147.5 C 249.82,152.86 247.153,158.193 244.5,163.5C 243.094,163.973 242.427,164.973 242.5,166.5C 237.662,174.173 233.328,182.173 229.5,190.5C 228.094,190.973 227.427,191.973 227.5,193.5C 225.805,194.826 224.472,194.493 223.5,192.5C 222.326,191.486 221.66,190.153 221.5,188.5C 215.331,174.829 208.664,161.496 201.5,148.5C 201.5,147.833 201.5,147.167 201.5,146.5C 201.414,145.504 201.748,144.671 202.5,144C 201.833,143.667 201.167,143.333 200.5,143C 217.179,142.483 233.846,142.816 250.5,144C 251.305,145.113 251.972,146.279 252.5,147.5 Z"/></g>
<g><path style="opacity:0.184" fill="#285f15" d="M 285.5,165.5 C 286.906,165.973 287.573,166.973 287.5,168.5C 286.094,168.027 285.427,167.027 285.5,165.5 Z"/></g>
<g><path style="opacity:0.208" fill="#396823" d="M 358.5,163.5 C 356.249,166.295 353.582,168.628 350.5,170.5C 350.511,168.983 351.177,167.816 352.5,167C 354.405,165.579 356.405,164.412 358.5,163.5 Z"/></g>
<g><path style="opacity:0.227" fill="#2e5d1d" d="M 462.5,165.5 C 462.833,165.5 463.167,165.5 463.5,165.5C 461.853,168.473 459.853,171.14 457.5,173.5C 458.383,170.296 460.05,167.629 462.5,165.5 Z"/></g>
<g><path style="opacity:0.999" fill="#d1eac7" d="M 339.5,157.5 C 338.213,160.406 337.213,163.406 336.5,166.5C 333.422,170.315 331.089,174.649 329.5,179.5C 326.68,184.469 323.847,189.469 321,194.5C 320.617,193.944 320.117,193.611 319.5,193.5C 312.6,181.371 305.933,169.038 299.5,156.5C 300.949,154.836 302.949,154.002 305.5,154C 303.5,153.667 301.5,153.333 299.5,153C 310.253,152.438 321.086,151.938 332,151.5C 333.945,152.863 336.112,153.697 338.5,154C 339.337,155.011 339.67,156.178 339.5,157.5 Z"/></g>
<g><path style="opacity:1" fill="#d5eccc" d="M 454.5,176.5 C 453.559,178.05 452.893,179.716 452.5,181.5C 452.5,182.167 452.167,182.5 451.5,182.5C 450.094,182.973 449.427,183.973 449.5,185.5C 447.008,185.47 444.341,185.803 441.5,186.5C 419.154,185.74 396.821,184.74 374.5,183.5C 367.588,184.458 360.755,184.125 354,182.5C 353.667,182.833 353.333,183.167 353,183.5C 350.467,183.05 348.3,182.05 346.5,180.5C 347.326,177.515 348.659,174.849 350.5,172.5C 351.75,172.423 352.583,171.756 353,170.5C 353.667,171.167 354.333,171.833 355,172.5C 367.506,171.808 380.006,171.475 392.5,171.5C 412.734,173.169 433.067,174.003 453.5,174C 454.252,174.671 454.586,175.504 454.5,176.5 Z"/></g>
<g><path style="opacity:0.243" fill="#3a6e28" d="M 259.5,167.5 C 259.06,171.252 257.393,174.252 254.5,176.5C 255.41,173.008 257.076,170.008 259.5,167.5 Z"/></g>
<g><path style="opacity:0.145" fill="#244913" d="M 197.5,172.5 C 198.906,172.973 199.573,173.973 199.5,175.5C 198.094,175.027 197.427,174.027 197.5,172.5 Z"/></g>
<g><path style="opacity:0.122" fill="#2b5c1a" d="M 336.5,166.5 C 334.926,171.32 332.593,175.653 329.5,179.5C 331.089,174.649 333.422,170.315 336.5,166.5 Z"/></g>
<g><path style="opacity:0.18" fill="#35621f" d="M 457.5,173.5 C 456.617,176.704 454.95,179.371 452.5,181.5C 452.893,179.716 453.559,178.05 454.5,176.5C 455.272,175.306 456.272,174.306 457.5,173.5 Z"/></g>
<g><path style="opacity:0.129" fill="#275915" d="M 290.5,174.5 C 291.906,174.973 292.573,175.973 292.5,177.5C 291.094,177.027 290.427,176.027 290.5,174.5 Z"/></g>
<g><path style="opacity:0.361" fill="#396825" d="M 84.5,166.5 C 87.8573,170.535 90.8573,174.868 93.5,179.5C 94.1667,180.5 94.8333,181.5 95.5,182.5C 97.0981,184.698 98.4314,187.031 99.5,189.5C 93.3271,182.648 88.3271,174.982 84.5,166.5 Z"/></g>
<g><path style="opacity:1" fill="#cfe9c3" d="M 200.5,181.5 C 201.222,182.551 202.222,183.218 203.5,183.5C 203.584,186.327 204.25,188.994 205.5,191.5C 170.711,190.408 135.711,189.408 100.5,188.5C 100.5,186.833 100.5,185.167 100.5,183.5C 98.7839,183.371 97.1172,183.038 95.5,182.5C 94.8333,181.5 94.1667,180.5 93.5,179.5C 97.3755,178.823 101.375,178.99 105.5,180C 133.339,180.647 161.173,181.481 189,182.5C 193.015,182.499 196.849,182.165 200.5,181.5 Z"/></g>
<g><path style="opacity:0.773" fill="#507f3e" d="M 199.5,175.5 C 201.341,177.849 202.674,180.515 203.5,183.5C 202.222,183.218 201.222,182.551 200.5,181.5C 199.85,179.565 199.517,177.565 199.5,175.5 Z"/></g>
<g><path style="opacity:0.161" fill="#2d581c" d="M 254.5,176.5 C 254.727,178.933 253.727,180.599 251.5,181.5C 251.75,179.326 252.75,177.659 254.5,176.5 Z"/></g>
<g><path style="opacity:0.651" fill="#4a7835" d="M 350.5,170.5 C 350.5,171.167 350.5,171.833 350.5,172.5C 348.659,174.849 347.326,177.515 346.5,180.5C 345.527,182.139 344.194,183.473 342.5,184.5C 344.145,179.206 346.811,174.539 350.5,170.5 Z"/></g>
<g><path style="opacity:0.831" fill="#5b8748" d="M 292.5,177.5 C 293.674,178.514 294.34,179.847 294.5,181.5C 292.824,180.817 292.157,179.483 292.5,177.5 Z"/></g>
<g><path style="opacity:1" fill="#d0e9c5" d="M 279.5,156.5 C 280.775,160.005 282.775,163.005 285.5,165.5C 285.427,167.027 286.094,168.027 287.5,168.5C 289.008,170.181 290.008,172.181 290.5,174.5C 290.427,176.027 291.094,177.027 292.5,177.5C 292.157,179.483 292.824,180.817 294.5,181.5C 294.427,183.027 295.094,184.027 296.5,184.5C 296.229,186.38 296.896,187.713 298.5,188.5C 298.5,189.167 298.5,189.833 298.5,190.5C 298.5,191.833 298.5,193.167 298.5,194.5C 282.844,193.825 267.178,193.325 251.5,193C 249.574,192.578 248.574,191.411 248.5,189.5C 248.5,188.833 248.5,188.167 248.5,187.5C 250.245,185.967 251.245,183.967 251.5,181.5C 253.727,180.599 254.727,178.933 254.5,176.5C 257.393,174.252 259.06,171.252 259.5,167.5C 261.25,166.341 262.25,164.674 262.5,162.5C 262.328,161.508 262.662,160.842 263.5,160.5C 265.074,159.016 266.407,157.349 267.5,155.5C 268.885,154.426 270.051,153.093 271,151.5C 271.667,152.167 272.333,152.833 273,153.5C 275.403,150.635 276.236,150.801 275.5,154C 276.984,154.662 278.317,155.496 279.5,156.5 Z"/></g>
<g><path style="opacity:0.216" fill="#33641b" d="M 294.5,181.5 C 295.906,181.973 296.573,182.973 296.5,184.5C 295.094,184.027 294.427,183.027 294.5,181.5 Z"/></g>
<g><path style="opacity:0.035" fill="#34601c" d="M 451.5,182.5 C 451.573,184.027 450.906,185.027 449.5,185.5C 449.427,183.973 450.094,182.973 451.5,182.5 Z"/></g>
<g><path style="opacity:0.18" fill="#32601e" d="M 242.5,166.5 C 239.194,175.115 234.861,183.115 229.5,190.5C 233.328,182.173 237.662,174.173 242.5,166.5 Z"/></g>
<g><path style="opacity:0.776" fill="#4e7b3b" d="M 251.5,181.5 C 251.245,183.967 250.245,185.967 248.5,187.5C 248.461,184.911 249.461,182.911 251.5,181.5 Z"/></g>
<g><path style="opacity:0.243" fill="#2e6119" d="M 296.5,184.5 C 297.674,185.514 298.34,186.847 298.5,188.5C 296.896,187.713 296.229,186.38 296.5,184.5 Z"/></g>
<g><path style="opacity:0.82" fill="#578443" d="M 203.5,183.5 C 206.674,188.516 209.341,193.849 211.5,199.5C 210.222,199.218 209.222,198.551 208.5,197.5C 208.008,195.181 207.008,193.181 205.5,191.5C 204.25,188.994 203.584,186.327 203.5,183.5 Z"/></g>
<g><path style="opacity:1" fill="#cee8c3" d="M 346.5,180.5 C 348.3,182.05 350.467,183.05 353,183.5C 353.333,183.167 353.667,182.833 354,182.5C 360.755,184.125 367.588,184.458 374.5,183.5C 396.821,184.74 419.154,185.74 441.5,186.5C 444.341,185.803 447.008,185.47 449.5,185.5C 448.581,188.089 446.914,190.089 444.5,191.5C 441.228,192.758 437.894,193.925 434.5,195C 419.17,195.5 403.837,195.667 388.5,195.5C 385.287,195.19 382.287,195.523 379.5,196.5C 377.738,196.357 376.071,196.691 374.5,197.5C 363.239,196.03 351.906,195.363 340.5,195.5C 340.5,194.167 340.5,192.833 340.5,191.5C 341.566,189.299 342.233,186.965 342.5,184.5C 344.194,183.473 345.527,182.139 346.5,180.5 Z"/></g>
<g><path style="opacity:1" fill="#c7e4ba" d="M 95.5,182.5 C 97.1172,183.038 98.7839,183.371 100.5,183.5C 100.5,185.167 100.5,186.833 100.5,188.5C 135.711,189.408 170.711,190.408 205.5,191.5C 207.008,193.181 208.008,195.181 208.5,197.5C 195.957,196.706 183.123,196.706 170,197.5C 166.326,195.906 162.492,195.239 158.5,195.5C 143.49,195.468 128.49,195.801 113.5,196.5C 111.485,195.076 109.152,194.41 106.5,194.5C 106.027,193.094 105.027,192.427 103.5,192.5C 102.738,190.738 101.404,189.738 99.5,189.5C 98.4314,187.031 97.0981,184.698 95.5,182.5 Z"/></g>
<g><path style="opacity:0.302" fill="#386423" d="M 329.5,179.5 C 327.963,184.247 326.13,188.913 324,193.5C 322.981,194.687 321.814,195.687 320.5,196.5C 319.614,195.675 319.281,194.675 319.5,193.5C 320.117,193.611 320.617,193.944 321,194.5C 323.847,189.469 326.68,184.469 329.5,179.5 Z"/></g>
<g><path style="opacity:0.651" fill="#4e8337" d="M 99.5,189.5 C 101.404,189.738 102.738,190.738 103.5,192.5C 101.596,192.262 100.262,191.262 99.5,189.5 Z"/></g>
<g><path style="opacity:0.204" fill="#30571d" d="M 248.5,187.5 C 248.5,188.167 248.5,188.833 248.5,189.5C 247.833,189.833 247.167,190.167 246.5,190.5C 246.427,188.973 247.094,187.973 248.5,187.5 Z"/></g>
<g><path style="opacity:0.133" fill="#234714" d="M 298.5,188.5 C 299.906,188.973 300.573,189.973 300.5,191.5C 299.833,191.167 299.167,190.833 298.5,190.5C 298.5,189.833 298.5,189.167 298.5,188.5 Z"/></g>
<g><path style="opacity:0.482" fill="#3f6b2a" d="M 342.5,184.5 C 342.233,186.965 341.566,189.299 340.5,191.5C 339.857,193.076 338.857,194.41 337.5,195.5C 338.769,191.592 340.435,187.925 342.5,184.5 Z"/></g>
<g><path style="opacity:0.196" fill="#3a7025" d="M 229.5,190.5 C 229.573,192.027 228.906,193.027 227.5,193.5C 227.427,191.973 228.094,190.973 229.5,190.5 Z"/></g>
<g><path style="opacity:0.224" fill="#2d5c1c" d="M 103.5,192.5 C 105.027,192.427 106.027,193.094 106.5,194.5C 104.973,194.573 103.973,193.906 103.5,192.5 Z"/></g>
<g><path style="opacity:0.424" fill="#356420" d="M 223.5,192.5 C 224.472,194.493 225.805,194.826 227.5,193.5C 227.585,194.995 226.919,195.995 225.5,196.5C 223.889,195.68 223.222,194.346 223.5,192.5 Z"/></g>
<g><path style="opacity:0.204" fill="#416f2a" d="M 300.5,191.5 C 302.008,193.181 303.008,195.181 303.5,197.5C 301.025,196.313 300.025,194.313 300.5,191.5 Z"/></g>
<g><path style="opacity:0.367" fill="#40702b" d="M 106.5,194.5 C 109.152,194.41 111.485,195.076 113.5,196.5C 110.772,196.829 108.438,196.163 106.5,194.5 Z"/></g>
<g><path style="opacity:0.196" fill="#35661d" d="M 158.5,195.5 C 158.5,195.833 158.5,196.167 158.5,196.5C 143.134,197.114 128.134,197.114 113.5,196.5C 128.49,195.801 143.49,195.468 158.5,195.5 Z"/></g>
<g><path style="opacity:0.969" fill="#668b54" d="M 388.5,195.5 C 388.5,195.833 388.5,196.167 388.5,196.5C 385.344,197.434 382.011,198.101 378.5,198.5C 378.833,197.833 379.167,197.167 379.5,196.5C 382.287,195.523 385.287,195.19 388.5,195.5 Z"/></g>
<g><path style="opacity:0.403" fill="#498230" d="M 444.5,191.5 C 442.351,193.746 439.684,195.246 436.5,196C 420.926,196.175 405.426,196.675 390,197.5C 389.617,196.944 389.117,196.611 388.5,196.5C 388.5,196.167 388.5,195.833 388.5,195.5C 403.837,195.667 419.17,195.5 434.5,195C 437.894,193.925 441.228,192.758 444.5,191.5 Z"/></g>
<g><path style="opacity:0.247" fill="#35601e" d="M 246.5,191.5 C 245.66,193.853 244.326,195.853 242.5,197.5C 242.845,194.802 244.178,192.802 246.5,191.5 Z"/></g>
<g><path style="opacity:1" fill="#c5e3b8" d="M 248.5,189.5 C 248.574,191.411 249.574,192.578 251.5,193C 267.178,193.325 282.844,193.825 298.5,194.5C 298.5,193.167 298.5,191.833 298.5,190.5C 299.167,190.833 299.833,191.167 300.5,191.5C 300.025,194.313 301.025,196.313 303.5,197.5C 303.427,199.027 304.094,200.027 305.5,200.5C 308.144,207.019 305.978,210.019 299,209.5C 295.813,209.606 292.813,208.939 290,207.5C 287.814,207.966 285.648,208.299 283.5,208.5C 271.212,207.686 258.879,207.186 246.5,207C 243.964,206.814 241.631,206.314 239.5,205.5C 240.363,203.579 241.029,201.579 241.5,199.5C 241.328,198.508 241.662,197.842 242.5,197.5C 244.326,195.853 245.66,193.853 246.5,191.5C 246.5,191.167 246.5,190.833 246.5,190.5C 247.167,190.167 247.833,189.833 248.5,189.5 Z"/></g>
<g><path style="opacity:0.463" fill="#407629" d="M 337.5,195.5 C 337.727,197.933 336.727,199.599 334.5,200.5C 335.11,198.566 336.11,196.899 337.5,195.5 Z"/></g>
<g><path style="opacity:0.247" fill="#335b1f" d="M 303.5,197.5 C 304.906,197.973 305.573,198.973 305.5,200.5C 304.094,200.027 303.427,199.027 303.5,197.5 Z"/></g>
<g><path style="opacity:0.173" fill="#2e5f1c" d="M 378.5,198.5 C 375.562,200.934 372.729,203.601 370,206.5C 367.74,211.356 365.24,216.022 362.5,220.5C 363.548,216.736 364.881,213.069 366.5,209.5C 369.243,204.422 373.243,200.755 378.5,198.5 Z"/></g>
<g><path style="opacity:0.999" fill="#c5e3b8" d="M 340.5,191.5 C 340.5,192.833 340.5,194.167 340.5,195.5C 351.906,195.363 363.239,196.03 374.5,197.5C 376.071,196.691 377.738,196.357 379.5,196.5C 379.167,197.167 378.833,197.833 378.5,198.5C 373.243,200.755 369.243,204.422 366.5,209.5C 355.031,210.291 343.697,209.958 332.5,208.5C 333.768,206.095 334.435,203.428 334.5,200.5C 336.727,199.599 337.727,197.933 337.5,195.5C 338.857,194.41 339.857,193.076 340.5,191.5 Z"/></g>
<g><path style="opacity:0.961" fill="#517e3e" d="M 170.5,199.5 C 177.45,203.366 181.45,209.366 182.5,217.5C 179.506,210.849 175.506,204.849 170.5,199.5 Z"/></g>
<g><path style="opacity:0.506" fill="#4a7b37" d="M 241.5,199.5 C 241.029,201.579 240.363,203.579 239.5,205.5C 238.9,206.9 237.9,207.9 236.5,208.5C 237.807,205.22 239.473,202.22 241.5,199.5 Z"/></g>
<g><path style="opacity:1" fill="#bcdeae" d="M 158.5,195.5 C 162.492,195.239 166.326,195.906 170,197.5C 183.123,196.706 195.957,196.706 208.5,197.5C 209.222,198.551 210.222,199.218 211.5,199.5C 212.674,200.514 213.34,201.847 213.5,203.5C 213.502,207.165 214.835,210.165 217.5,212.5C 217.662,214.527 217.495,216.527 217,218.5C 212,217.833 207,217.167 202,216.5C 196.471,217.129 190.638,217.796 184.5,218.5C 184.158,217.662 183.492,217.328 182.5,217.5C 181.45,209.366 177.45,203.366 170.5,199.5C 166.431,198.311 162.431,197.311 158.5,196.5C 158.5,196.167 158.5,195.833 158.5,195.5 Z"/></g>
<g><path style="opacity:0.765" fill="#4a7935" d="M 213.5,203.5 C 215.625,206.088 216.958,209.088 217.5,212.5C 214.835,210.165 213.502,207.165 213.5,203.5 Z"/></g>
<g><path style="opacity:0.118" fill="#1e5011" d="M 308.5,206.5 C 309.906,206.973 310.573,207.973 310.5,209.5C 309.094,209.027 308.427,208.027 308.5,206.5 Z"/></g>
<g><path style="opacity:0.816" fill="#699753" d="M 334.5,200.5 C 334.435,203.428 333.768,206.095 332.5,208.5C 330.936,211.274 329.103,213.941 327,216.5C 325.795,219.562 324.628,222.562 323.5,225.5C 322.833,225.833 322.167,226.167 321.5,226.5C 325.294,217.578 329.628,208.911 334.5,200.5 Z"/></g>
<g><path style="opacity:0.871" fill="#547f43" d="M 310.5,209.5 C 311.89,210.899 312.89,212.566 313.5,214.5C 311.241,213.656 310.241,211.989 310.5,209.5 Z"/></g>
<g><path style="opacity:0.999" fill="#bbdeac" d="M 305.5,200.5 C 307.008,202.181 308.008,204.181 308.5,206.5C 308.427,208.027 309.094,209.027 310.5,209.5C 310.241,211.989 311.241,213.656 313.5,214.5C 315.008,216.181 316.008,218.181 316.5,220.5C 316.557,221.609 316.89,222.609 317.5,223.5C 316.829,224.847 316.829,226.014 317.5,227C 309.04,227.165 300.874,227.332 293,227.5C 289.713,227.13 286.713,226.13 284,224.5C 283.583,225.756 282.75,226.423 281.5,226.5C 279.877,222.223 277.544,218.557 274.5,215.5C 274.483,213.972 273.816,213.472 272.5,214C 271.117,215.271 270.117,216.771 269.5,218.5C 258.241,218.841 247.074,219.175 236,219.5C 234.301,219.613 233.134,218.947 232.5,217.5C 234.204,214.744 235.537,211.744 236.5,208.5C 237.9,207.9 238.9,206.9 239.5,205.5C 241.631,206.314 243.964,206.814 246.5,207C 258.879,207.186 271.212,207.686 283.5,208.5C 285.648,208.299 287.814,207.966 290,207.5C 292.813,208.939 295.813,209.606 299,209.5C 305.978,210.019 308.144,207.019 305.5,200.5 Z"/></g>
<g><path style="opacity:0.827" fill="#53813c" d="M 236.5,208.5 C 235.537,211.744 234.204,214.744 232.5,217.5C 232.167,217.5 231.833,217.5 231.5,217.5C 232.41,214.008 234.076,211.008 236.5,208.5 Z"/></g>
<g><path style="opacity:0.192" fill="#264d17" d="M 274.5,215.5 C 273.761,215.369 273.094,215.536 272.5,216C 271.512,218.167 270.179,220 268.5,221.5C 268.557,220.391 268.89,219.391 269.5,218.5C 270.117,216.771 271.117,215.271 272.5,214C 273.816,213.472 274.483,213.972 274.5,215.5 Z"/></g>
<g><path style="opacity:0.016" fill="#224d14" d="M 182.5,217.5 C 183.492,217.328 184.158,217.662 184.5,218.5C 184.833,219.833 185.167,221.167 185.5,222.5C 183.75,221.341 182.75,219.674 182.5,217.5 Z"/></g>
<g><path style="opacity:1" fill="#bbdeac" d="M 332.5,208.5 C 343.697,209.958 355.031,210.291 366.5,209.5C 364.881,213.069 363.548,216.736 362.5,220.5C 360.75,221.659 359.75,223.326 359.5,225.5C 358.234,226.09 356.901,226.59 355.5,227C 356.056,227.383 356.389,227.883 356.5,228.5C 346.828,228.666 337.161,228.5 327.5,228C 326.142,227.066 324.808,226.232 323.5,225.5C 324.628,222.562 325.795,219.562 327,216.5C 329.103,213.941 330.936,211.274 332.5,208.5 Z"/></g>
<g><path style="opacity:0.773" fill="#2a4f1c" d="M 185.5,222.5 C 187.366,224.001 188.699,226.001 189.5,228.5C 191.438,232.043 193.105,235.71 194.5,239.5C 190.74,234.316 187.74,228.65 185.5,222.5 Z"/></g>
<g><path style="opacity:0.322" fill="#396d22" d="M 316.5,220.5 C 317.906,220.973 318.573,221.973 318.5,223.5C 318.167,223.5 317.833,223.5 317.5,223.5C 316.89,222.609 316.557,221.609 316.5,220.5 Z"/></g>
<g><path style="opacity:0.224" fill="#2f611a" d="M 362.5,220.5 C 362.25,222.674 361.25,224.341 359.5,225.5C 359.75,223.326 360.75,221.659 362.5,220.5 Z"/></g>
<g><path style="opacity:0.2" fill="#366523" d="M 274.5,215.5 C 277.544,218.557 279.877,222.223 281.5,226.5C 282.11,227.391 282.443,228.391 282.5,229.5C 279.331,225.167 276.664,220.5 274.5,215.5 Z"/></g>
<g><path style="opacity:0.486" fill="#396b21" d="M 318.5,223.5 C 319.906,223.973 320.573,224.973 320.5,226.5C 319.094,226.027 318.427,225.027 318.5,223.5 Z"/></g>
<g><path style="opacity:1" fill="#b4d9a3" d="M 217.5,212.5 C 219.341,214.849 220.674,217.515 221.5,220.5C 221.241,222.989 222.241,224.656 224.5,225.5C 224.517,227.028 225.184,227.528 226.5,227C 228.607,225.736 229.607,223.903 229.5,221.5C 229.66,219.847 230.326,218.514 231.5,217.5C 231.833,217.5 232.167,217.5 232.5,217.5C 233.134,218.947 234.301,219.613 236,219.5C 247.074,219.175 258.241,218.841 269.5,218.5C 268.89,219.391 268.557,220.391 268.5,221.5C 268.672,222.492 268.338,223.158 267.5,223.5C 265.412,225.336 264.079,227.669 263.5,230.5C 261.97,231.067 260.47,231.733 259,232.5C 255.667,231.167 252.333,231.167 249,232.5C 245.2,231.801 241.367,231.135 237.5,230.5C 224.529,231.774 211.862,231.774 199.5,230.5C 196.122,229.958 192.789,229.291 189.5,228.5C 188.699,226.001 187.366,224.001 185.5,222.5C 185.167,221.167 184.833,219.833 184.5,218.5C 190.638,217.796 196.471,217.129 202,216.5C 207,217.167 212,217.833 217,218.5C 217.495,216.527 217.662,214.527 217.5,212.5 Z"/></g>
<g><path style="opacity:0.561" fill="#3c6d27" d="M 229.5,221.5 C 229.607,223.903 228.607,225.736 226.5,227C 225.184,227.528 224.517,227.028 224.5,225.5C 226.775,224.889 228.441,223.555 229.5,221.5 Z"/></g>
<g><path style="opacity:0.875" fill="#588543" d="M 221.5,220.5 C 222.89,221.899 223.89,223.566 224.5,225.5C 222.241,224.656 221.241,222.989 221.5,220.5 Z"/></g>
<g><path style="opacity:0.975" fill="#5f8a4d" d="M 359.5,225.5 C 359.008,227.819 358.008,229.819 356.5,231.5C 356.5,230.5 356.5,229.5 356.5,228.5C 356.389,227.883 356.056,227.383 355.5,227C 356.901,226.59 358.234,226.09 359.5,225.5 Z"/></g>
<g><path style="opacity:1" fill="#acd59b" d="M 189.5,228.5 C 192.789,229.291 196.122,229.958 199.5,230.5C 211.862,231.774 224.529,231.774 237.5,230.5C 241.367,231.135 245.2,231.801 249,232.5C 252.333,231.167 255.667,231.167 259,232.5C 260.47,231.733 261.97,231.067 263.5,230.5C 262.921,233.331 261.588,235.664 259.5,237.5C 256.793,240.247 255.127,243.58 254.5,247.5C 252.726,248.37 251.393,249.703 250.5,251.5C 248.738,251.643 247.071,251.309 245.5,250.5C 245.167,251.167 244.833,251.833 244.5,252.5C 231.282,251.832 218.115,250.832 205,249.5C 204.329,250.252 203.496,250.586 202.5,250.5C 201.624,250.631 200.957,250.298 200.5,249.5C 201.326,248.549 201.492,247.549 201,246.5C 199.133,244.093 196.966,242.093 194.5,240.5C 194.5,240.167 194.5,239.833 194.5,239.5C 193.105,235.71 191.438,232.043 189.5,228.5 Z"/></g>
<g><path style="opacity:0.102" fill="#224f13" d="M 267.5,223.5 C 266.921,226.331 265.588,228.664 263.5,230.5C 264.079,227.669 265.412,225.336 267.5,223.5 Z"/></g>
<g><path style="opacity:1" fill="#add59b" d="M 317.5,223.5 C 317.833,223.5 318.167,223.5 318.5,223.5C 318.427,225.027 319.094,226.027 320.5,226.5C 320.833,226.5 321.167,226.5 321.5,226.5C 322.167,226.167 322.833,225.833 323.5,225.5C 324.808,226.232 326.142,227.066 327.5,228C 337.161,228.5 346.828,228.666 356.5,228.5C 356.5,229.5 356.5,230.5 356.5,231.5C 355.692,234.45 354.358,237.117 352.5,239.5C 348.853,243.443 346.186,248.11 344.5,253.5C 341.086,254.411 337.586,255.078 334,255.5C 330.465,255.643 327.132,254.976 324,253.5C 320.355,254.071 316.355,254.404 312,254.5C 307.002,254.654 302.168,253.987 297.5,252.5C 296.239,249.939 294.239,248.272 291.5,247.5C 291.5,247.167 291.5,246.833 291.5,246.5C 291.392,242.284 289.726,238.951 286.5,236.5C 286.573,234.973 285.906,233.973 284.5,233.5C 283.326,232.486 282.66,231.153 282.5,229.5C 282.443,228.391 282.11,227.391 281.5,226.5C 282.75,226.423 283.583,225.756 284,224.5C 286.713,226.13 289.713,227.13 293,227.5C 300.874,227.332 309.04,227.165 317.5,227C 316.829,226.014 316.829,224.847 317.5,223.5 Z"/></g>
<g><path style="opacity:0.11" fill="#1e510d" d="M 284.5,233.5 C 285.906,233.973 286.573,234.973 286.5,236.5C 285.094,236.027 284.427,235.027 284.5,233.5 Z"/></g>
<g><path style="opacity:0.239" fill="#30601c" d="M 259.5,237.5 C 258.341,241.151 256.674,244.485 254.5,247.5C 255.127,243.58 256.793,240.247 259.5,237.5 Z"/></g>
<g><path style="opacity:0.941" fill="#588442" d="M 286.5,236.5 C 289.726,238.951 291.392,242.284 291.5,246.5C 289.326,243.485 287.659,240.151 286.5,236.5 Z"/></g>
<g><path style="opacity:0.918" fill="#4f7c3b" d="M 291.5,247.5 C 294.239,248.272 296.239,249.939 297.5,252.5C 298.5,255.833 299.5,259.167 300.5,262.5C 297.766,257.37 294.766,252.37 291.5,247.5 Z"/></g>
<g><path style="opacity:0.286" fill="#2f601a" d="M 352.5,239.5 C 350.072,244.693 347.405,249.693 344.5,254.5C 344.5,254.167 344.5,253.833 344.5,253.5C 346.186,248.11 348.853,243.443 352.5,239.5 Z"/></g>
<g><path style="opacity:0.999" fill="#a2cf8f" d="M 250.5,251.5 C 249.833,253.5 249.167,255.5 248.5,257.5C 248.672,258.492 248.338,259.158 247.5,259.5C 245.896,260.287 245.229,261.62 245.5,263.5C 244.5,263.833 243.833,264.5 243.5,265.5C 241.856,265.714 240.356,265.38 239,264.5C 234,265.167 229,265.833 224,266.5C 220.584,266.153 217.25,264.819 214,262.5C 212.667,263.167 211.667,264.167 211,265.5C 209.729,264.117 208.229,263.117 206.5,262.5C 205.167,258.5 203.833,254.5 202.5,250.5C 203.496,250.586 204.329,250.252 205,249.5C 218.115,250.832 231.282,251.832 244.5,252.5C 244.833,251.833 245.167,251.167 245.5,250.5C 247.071,251.309 248.738,251.643 250.5,251.5 Z"/></g>
<g><path style="opacity:0.898" fill="#477235" d="M 194.5,240.5 C 196.966,242.093 199.133,244.093 201,246.5C 201.492,247.549 201.326,248.549 200.5,249.5C 200.957,250.298 201.624,250.631 202.5,250.5C 203.833,254.5 205.167,258.5 206.5,262.5C 202.008,255.522 198.008,248.188 194.5,240.5 Z"/></g>
<g><path style="opacity:0.149" fill="#285017" d="M 254.5,247.5 C 252.988,251.201 250.988,254.534 248.5,257.5C 249.167,255.5 249.833,253.5 250.5,251.5C 251.393,249.703 252.726,248.37 254.5,247.5 Z"/></g>
<g><path style="opacity:0.314" fill="#2f5f1a" d="M 247.5,259.5 C 247.34,261.153 246.674,262.486 245.5,263.5C 245.229,261.62 245.896,260.287 247.5,259.5 Z"/></g>
<g><path style="opacity:0.102" fill="#224a10" d="M 341.5,259.5 C 341.771,261.38 341.104,262.713 339.5,263.5C 339.66,261.847 340.326,260.514 341.5,259.5 Z"/></g>
<g><path style="opacity:0.694" fill="#2d561c" d="M 301.5,264.5 C 304.812,267.771 307.145,271.771 308.5,276.5C 305.677,272.864 303.344,268.864 301.5,264.5 Z"/></g>
<g><path style="opacity:0.071" fill="#1e4f10" d="M 245.5,263.5 C 245.573,265.027 244.906,266.027 243.5,266.5C 243.5,266.167 243.5,265.833 243.5,265.5C 243.833,264.5 244.5,263.833 245.5,263.5 Z"/></g>
<g><path style="opacity:1" fill="#95c480" d="M 206.5,262.5 C 208.229,263.117 209.729,264.117 211,265.5C 211.667,264.167 212.667,263.167 214,262.5C 217.25,264.819 220.584,266.153 224,266.5C 229,265.833 234,265.167 239,264.5C 240.356,265.38 241.856,265.714 243.5,265.5C 243.5,265.833 243.5,266.167 243.5,266.5C 243.008,268.819 242.008,270.819 240.5,272.5C 238.75,273.659 237.75,275.326 237.5,277.5C 229.992,275.303 222.325,274.97 214.5,276.5C 213.534,273.531 211.867,271.198 209.5,269.5C 208.264,267.351 207.264,265.018 206.5,262.5 Z"/></g>
<g><path style="opacity:0.616" fill="#2c511b" d="M 209.5,269.5 C 211.867,271.198 213.534,273.531 214.5,276.5C 214.5,277.167 214.5,277.833 214.5,278.5C 212.595,275.696 210.929,272.696 209.5,269.5 Z"/></g>
<g><path style="opacity:0.016" fill="#1c490d" d="M 240.5,272.5 C 240.25,274.674 239.25,276.341 237.5,277.5C 237.75,275.326 238.75,273.659 240.5,272.5 Z"/></g>
<g><path style="opacity:1" fill="#9bca87" d="M 297.5,252.5 C 302.168,253.987 307.002,254.654 312,254.5C 316.355,254.404 320.355,254.071 324,253.5C 327.132,254.976 330.465,255.643 334,255.5C 337.586,255.078 341.086,254.411 344.5,253.5C 344.5,253.833 344.5,254.167 344.5,254.5C 343.737,256.368 342.737,258.035 341.5,259.5C 340.326,260.514 339.66,261.847 339.5,263.5C 338.341,267.151 336.674,270.485 334.5,273.5C 332.461,274.911 331.461,276.911 331.5,279.5C 330.584,279.982 329.584,280.315 328.5,280.5C 324.751,279.581 321.251,278.914 318,278.5C 314.24,280.861 311.073,280.195 308.5,276.5C 307.145,271.771 304.812,267.771 301.5,264.5C 300.662,264.158 300.328,263.492 300.5,262.5C 299.5,259.167 298.5,255.833 297.5,252.5 Z"/></g>
<g><path style="opacity:0.999" fill="#83b46d" d="M 237.5,277.5 C 234.513,283.473 231.513,289.473 228.5,295.5C 226.5,295.5 224.5,295.5 222.5,295.5C 220.524,290.874 218.524,286.208 216.5,281.5C 216.573,279.973 215.906,278.973 214.5,278.5C 214.5,277.833 214.5,277.167 214.5,276.5C 222.325,274.97 229.992,275.303 237.5,277.5 Z"/></g>
<g><path style="opacity:0.137" fill="#1e4e10" d="M 334.5,273.5 C 334.008,275.819 333.008,277.819 331.5,279.5C 331.461,276.911 332.461,274.911 334.5,273.5 Z"/></g>
<g><path style="opacity:0.999" fill="#84b56e" d="M 308.5,276.5 C 311.073,280.195 314.24,280.861 318,278.5C 321.251,278.914 324.751,279.581 328.5,280.5C 329.584,280.315 330.584,279.982 331.5,279.5C 330.258,283.655 328.258,287.322 325.5,290.5C 323.75,291.659 322.75,293.326 322.5,295.5C 320.833,295.5 319.167,295.5 317.5,295.5C 317.5,294.833 317.5,294.167 317.5,293.5C 316.23,289.27 314.23,285.603 311.5,282.5C 309.654,280.97 308.654,278.97 308.5,276.5 Z"/></g>
<g><path style="opacity:0.016" fill="#184b0a" d="M 214.5,278.5 C 215.906,278.973 216.573,279.973 216.5,281.5C 215.094,281.027 214.427,280.027 214.5,278.5 Z"/></g>
<g><path style="opacity:0.58" fill="#376424" d="M 311.5,282.5 C 314.23,285.603 316.23,289.27 317.5,293.5C 314.742,290.322 312.742,286.655 311.5,282.5 Z"/></g>
<g><path style="opacity:0.184" fill="#214f14" d="M 325.5,290.5 C 325.107,292.284 324.441,293.95 323.5,295.5C 323.167,295.5 322.833,295.5 322.5,295.5C 322.75,293.326 323.75,291.659 325.5,290.5 Z"/></g>
</svg>
